<?xml version="1.0" encoding="UTF-8" standalone="no"?>
<!-- Created with Inkscape (http://www.inkscape.org/) -->

<svg
   version="1.1"
   id="svg970"
   width="800"
   height="800"
   viewBox="0 0 800 800"
   sodipodi:docname="boat-outline-graphics-vector-pdv.svg"
   inkscape:version="1.2 (dc2aedaf03, 2022-05-15)"
   xmlns:inkscape="http://www.inkscape.org/namespaces/inkscape"
   xmlns:sodipodi="http://sodipodi.sourceforge.net/DTD/sodipodi-0.dtd"
   xmlns="http://www.w3.org/2000/svg"
   xmlns:svg="http://www.w3.org/2000/svg">
  <defs
     id="defs974">
    <clipPath
       clipPathUnits="userSpaceOnUse"
       id="clipPath986">
      <path
         d="M 0,600 H 600 V 0 H 0 Z"
         id="path984" />
    </clipPath>
  </defs>
  <sodipodi:namedview
     id="namedview972"
     pagecolor="#ffffff"
     bordercolor="#000000"
     borderopacity="0.25"
     inkscape:showpageshadow="2"
     inkscape:pageopacity="0.0"
     inkscape:pagecheckerboard="0"
     inkscape:deskcolor="#d1d1d1"
     showgrid="false"
     inkscape:zoom="1.04625"
     inkscape:cx="400"
     inkscape:cy="400.4779"
     inkscape:window-width="1920"
     inkscape:window-height="1017"
     inkscape:window-x="-8"
     inkscape:window-y="-8"
     inkscape:window-maximized="1"
     inkscape:current-layer="g978">
    <inkscape:page
       x="0"
       y="0"
       id="page976"
       width="800"
       height="800" />
  </sodipodi:namedview>
  <g
     id="g978"
     inkscape:groupmode="layer"
     inkscape:label="Page 1"
     transform="matrix(1.3333333,0,0,-1.3333333,0,800)">
    <g
       id="g980">
      <g
         id="g982"
         clip-path="url(#clipPath986)">
        <g
           id="g988"
           transform="translate(88.395,183.5283)">
          <path
             d="M 0,0 0.836,1.21 0.7,2.676 c -2.797,29.983 -5.012,106.006 34.716,164.213 26.137,38.295 72.168,72.145 119.093,99.226 l 3.773,-5.717 C 110.989,232.247 53.081,191.142 32.771,149.098 26.781,142.958 21.136,126.205 16.641,106.109 9.089,78.882 7.03,54.411 6.988,36.031 6.682,29.693 6.62,23.932 6.837,19.051 7.17,11.561 8.063,7.178 9.092,4.513 9.345,2.871 9.521,1.971 9.537,1.896 L 9.749,0.852 10.73,0.437 c 0.804,-0.34 1.888,-0.656 3.216,-0.948 5.856,-2.225 18.871,-3.079 35.34,-3.079 9.181,0 19.432,0.265 30.103,0.7 13.541,0.305 28.186,0.907 43.152,1.822 17.78,1.088 42.555,3.02 68.825,6.333 l 3.488,0.378 -0.064,0.059 c 30.356,3.951 62.379,9.763 87.71,18.276 15.026,5.049 29.781,13.108 44.202,24.111 1.344,-1.978 2.691,-3.954 4.033,-5.933 l 1.698,-2.477 C 328.032,36.461 323.522,33.461 318.897,30.724 240.7,-15.555 84.788,-13.96 21.385,-11.127 l -1.052,0.047 -0.941,-0.472 C 4.476,-19.025 -1.146,-14.946 -1.781,-14.413 l -0.11,0.158 0.018,-0.063 C -2.518,-13.52 -5.937,-8.59 0,0 m 24.196,-32.958 c 20.728,-1.879 41.982,-2.829 63.276,-2.829 35.872,0 71.842,2.65 105.587,7.902 44.417,6.913 82.364,18.072 110.305,32.207 -4.921,-4.136 -10.205,-8.244 -15.933,-12.278 -52.613,-26.707 -153.266,-47.009 -238.009,-38.842 -11.021,4.491 -19.23,9.392 -25.226,13.84 m 39.951,-19.011 c 8.154,-0.463 16.412,-0.695 24.727,-0.695 62.697,0 128.539,12.621 174.894,30.039 -31.704,-17.253 -74.453,-31.757 -135.113,-39.112 -26.897,1.021 -48.02,4.818 -64.508,9.768 m -51.155,29.214 c 2.717,0.766 5.72,1.882 9.068,3.501 64.785,-2.833 221.32,-4.117 300.958,43.016 0.812,0.481 1.615,0.982 2.42,1.478 -2.63,-2.777 -5.376,-5.576 -8.255,-8.385 -58.481,-37.865 -182.278,-56.897 -298.634,-45.226 -2.385,2.133 -4.21,4.049 -5.557,5.616 m 23.949,171.139 c 13.956,27.993 45.597,56.603 82.773,82.488 l 2.077,-1.619 v -7.177 l 4.731,-3.699 C 115.895,211.793 105.984,204.73 96.793,197.189 l -1.722,0.153 -0.672,0.06 c -0.222,0.02 -0.642,0.034 -0.953,0.044 -0.674,0.014 -1.35,-0.029 -2.014,-0.136 -2.678,-0.385 -5.162,-1.731 -7.008,-3.674 -1.868,-1.934 -3.015,-4.569 -3.263,-7.247 -0.084,-1.008 -0.039,-2.031 0.129,-3.034 C 67.688,170.146 56.004,155.676 46.252,139.967 Z M 229.256,15.101 C 216.925,12.864 204,10.922 190.86,9.253 L 79.418,109.987 c 5.796,7.617 11.799,14.852 17.87,21.449 z m 40,9.03 C 258.558,21.105 246.77,18.418 234.307,16.042 L 100.062,134.384 c 4.821,4.896 11.099,10.092 18.437,15.446 z m 34.856,13.897 c -7.56,-4.215 -15.195,-7.627 -22.9,-10.216 -2.355,-0.791 -4.788,-1.561 -7.281,-2.312 l -152.04,126.769 c 6.686,4.72 14.136,9.545 22.082,14.377 z m 2.556,39.514 C 312.586,68.839 318.51,60.14 324.427,51.436 318.956,47.251 313.438,43.5 307.878,40.192 l -159.879,128.409 17.57,-1.47 29.517,-2.357 z m -55.815,82.881 c 10.446,-15.628 20.918,-31.238 31.428,-46.821 2.02,-3.011 4.051,-6.012 6.077,-9.017 l -75.415,58.768 17.164,-1.366 z M 61.311,126.354 49.336,137.179 c 9.348,15.174 20.516,29.175 33.496,41.989 0.095,-0.159 0.186,-0.321 0.29,-0.475 1.484,-2.236 3.714,-3.998 6.294,-4.826 0.637,-0.216 1.298,-0.375 1.959,-0.472 0.309,-0.043 0.72,-0.1 0.943,-0.118 l 0.673,-0.057 2.687,-0.226 5.376,-0.453 6.593,-0.556 c -13.904,-10.503 -25.979,-21.14 -34.96,-31.506 -4.062,-4.687 -7.833,-9.403 -11.376,-14.125 m 34.348,9.293 C 89.075,128.607 82.6,120.866 76.377,112.736 l -12.076,10.916 c 3.617,4.814 7.428,9.544 11.444,14.178 9.732,11.235 22.795,22.594 37.716,33.665 l 9.098,-0.766 17.96,-1.503 c -18.056,-11.065 -34.874,-22.899 -44.86,-33.579 m 143.78,41.878 c 2.288,-3.436 4.582,-6.867 6.873,-10.299 l -15.621,1.523 -21.485,2.01 -42.977,4.004 -42.988,3.841 -21.496,1.907 -5.375,0.476 -2.687,0.239 -0.672,0.059 c -0.225,0.021 -0.257,0.042 -0.395,0.055 -0.226,0.032 -0.446,0.086 -0.657,0.161 -0.857,0.267 -1.593,0.879 -2.095,1.629 -0.514,0.757 -0.696,1.661 -0.648,2.567 0.098,0.895 0.434,1.75 1.075,2.41 0.625,0.657 1.469,1.139 2.362,1.258 0.221,0.041 0.45,0.055 0.672,0.05 0.136,-0.011 0.168,0.005 0.394,-0.014 l 0.672,-0.056 2.688,-0.226 5.377,-0.454 21.501,-1.812 43.012,-3.591 c 24.156,-1.904 48.308,-3.894 72.47,-5.737 m -86.553,20.242 8.053,-6.296 -15.94,1.426 c 2.608,1.637 5.238,3.262 7.887,4.87 m -14.163,-4.308 -14.096,1.262 -21.495,1.906 -0.51,0.045 c 8.498,6.75 17.598,13.1 27.3,19.047 l 19.737,-15.429 c -3.686,-2.253 -7.336,-4.53 -10.936,-6.831 m 87.009,4.737 c 2.998,-4.531 5.982,-9.074 8.989,-13.6 -18.575,1.78 -37.156,3.486 -55.734,5.217 l -53.705,41.849 36.455,23.498 34.941,-52.972 1.401,-0.423 c 1.828,-0.553 12.959,-3.784 23.326,-3.784 1.467,0 2.918,0.069 4.327,0.215 M 34.594,145.052 185.436,8.704 C 137.961,3.826 24.136,-4.249 14.141,3.869 13.514,4.379 11.422,6.995 10.878,19.23 9.264,55.523 22.024,128.94 34.594,145.052 M 337.019,46.5 c -16.516,23.562 -32.92,47.201 -49.562,70.676 -33.161,47.033 -66.552,93.908 -100.602,140.331 -10e-4,10e-4 -10e-4,0.002 -0.002,0.003 11.142,-17.207 22.392,-34.34 33.681,-51.444 -5.993,0.157 -13.146,1.473 -18.728,3.039 l -50.119,75.981 c 2.22,4.576 8.384,16.069 16.388,20.977 8.039,4.928 19.886,5.481 24.522,5.495 l 50.196,-73.649 c -1.261,-6.232 -3.557,-14.682 -6.357,-21.163 -12.023,16.694 -24.09,33.359 -36.263,49.95 31.286,-48.33 63.233,-96.203 95.418,-143.913 l 12.056,-17.9 12.128,-17.85 24.269,-35.693 24.403,-35.6 12.213,-17.792 3.053,-4.448 1.527,-2.224 0.382,-0.556 c 0.128,-0.187 0.131,-0.224 0.21,-0.34 0.118,-0.193 0.216,-0.4 0.293,-0.609 0.34,-0.832 0.336,-1.789 0.079,-2.652 -0.259,-0.879 -0.84,-1.594 -1.569,-2.134 -0.752,-0.494 -1.626,-0.778 -2.543,-0.705 -0.905,0.064 -1.814,0.407 -2.474,1.021 -0.172,0.144 -0.328,0.311 -0.466,0.487 -0.08,0.112 -0.11,0.126 -0.241,0.311 l -0.384,0.555 -1.536,2.217 -3.072,4.435 -12.291,17.737 z m 19.232,13.7 c -1.78,-1.775 -3.586,-3.511 -5.412,-5.216 l -0.489,0.704 -5.551,7.937 c 12.27,11.715 24.267,25.626 35.945,41.717 l 1.244,1.478 -0.119,0.092 c 1.72,2.394 3.434,4.824 5.139,7.312 2.266,3.306 4.471,6.639 6.629,9.984 l 10.647,-0.98 C 390.97,101.014 375.2,79.277 357.035,60.993 l -0.04,0.037 c -0.247,-0.272 -0.496,-0.555 -0.744,-0.83 m -37.413,95.213 c 11.435,-0.81 22.874,-1.598 34.314,-2.365 4.518,-11.223 14.805,-23.691 16.269,-25.435 l 1.07,-1.275 18.602,-1.712 c -1.771,-2.717 -3.577,-5.425 -5.421,-8.115 -1.663,-2.427 -3.334,-4.796 -5.009,-7.131 z m 23.3,-87.985 -16.528,23.629 -12.376,17.679 -12.446,17.631 c -7.528,10.678 -15.073,21.345 -22.631,32.003 11.122,-0.827 22.245,-1.641 33.37,-2.435 l 64.633,-49.733 c -6.219,-7.215 -25.767,-29.41 -34.022,-38.774 m 32.429,66.659 c -3.997,4.934 -9.045,12.07 -12.26,18.349 20.525,-1.352 41.054,-2.631 61.593,-3.803 -49.999,5.802 -100.05,10.992 -150.126,15.913 -2.6,3.663 -5.215,7.316 -7.82,10.975 53.077,-3.996 106.179,-7.724 159.341,-10.768 h -0.002 c -20.357,2.359 -40.724,4.613 -61.097,6.794 3.934,4.514 9.495,9.183 14.248,12.485 l 90.503,-9.713 c 2.116,-4.625 7.058,-16.693 5.746,-25.991 -1.316,-9.337 -8.431,-18.826 -11.371,-22.409 z m 61.302,51.919 -7.757,0.832 c 8.942,18.924 15.683,35.582 20.098,47.246 0.065,0.143 0.089,0.284 0.123,0.425 l 5.53,1.944 c -3.517,-12.522 -9.528,-30.298 -17.994,-50.447 m 16.484,53.147 -5.652,-0.983 c -0.165,0.171 -0.326,0.333 -0.473,0.479 -8.133,8.057 -43.819,32.24 -74.866,51.965 -17.353,11.026 -33.39,20.753 -45.154,27.391 -11.626,6.56 -17.518,9.269 -20.697,10.255 l 0.167,4.63 c 50.239,-25.866 99.546,-57.38 146.675,-93.737 m -221.093,30.043 -13.142,19.283 c 32.821,16.417 62.065,28.66 79.757,34.534 l -3.521,-26.981 c -9.634,-3.986 -34.647,-14.407 -63.094,-26.836 m 2.317,-3.401 c 26.223,11.45 49.423,21.151 60.174,25.609 l -2.988,-22.905 c -8.946,-2.444 -25.785,-9.003 -46.501,-18.38 z m 17.788,-26.098 -4.74,6.954 c 19.387,8.7 35.064,14.847 43.565,17.458 l -3.208,-24.589 c -7.815,-2.302 -21.859,-7.742 -39.307,-15.363 2.022,6.758 3.15,12.609 3.388,13.904 z m 162.827,-51.365 -37.817,4.059 -1.218,-0.81 c -0.621,-0.414 -2.463,-1.664 -4.868,-3.508 -26.128,19.847 -52.455,38.296 -75.269,50.514 l 3.526,27.034 c 6.033,-1.431 28.141,-14.096 62.201,-37.529 24.856,-17.101 44.459,-31.942 53.445,-39.76 m 19.468,20.613 c -2.905,-6.74 -6.178,-14.016 -9.806,-21.65 l -2.989,0.321 c -1.228,1.279 -2.96,2.868 -5.346,4.908 -12.644,10.804 -40.567,31.126 -66.394,48.322 -32.606,21.708 -44.972,27.553 -50.066,28.702 l 3.149,24.146 c 7.418,-2.578 31.006,-15.805 66.957,-39.016 36.532,-23.587 61.236,-41.616 64.495,-45.733 m 10.544,25.98 c -2.323,-6.114 -5.274,-13.568 -8.826,-21.958 -2.389,2.318 -7.004,6.074 -15.921,12.536 -10.54,7.637 -24.993,17.496 -40.695,27.763 -27.181,17.773 -63.185,40.01 -75.197,44.191 -0.235,0.082 -0.523,0.178 -0.83,0.274 l 3.398,26.045 c 8.703,-3.495 33.104,-17.324 69.725,-40.833 39.416,-25.303 65.121,-43.873 68.346,-48.018 m -89.386,-62.382 c -3.418,0.362 -6.836,0.723 -10.253,1.081 l -74.872,55.306 c 9.6,3.836 16.956,6.434 20.955,7.395 22.916,-11.945 49.717,-30.635 76.381,-50.858 -4.153,-3.457 -8.957,-8.033 -12.211,-12.924 m -111.104,40.675 c 0.819,1.845 1.57,3.765 2.253,5.688 6.987,3.084 13.495,5.856 19.329,8.244 l 71.341,-52.698 c -16.329,1.695 -32.661,3.345 -48.996,4.966 z m 36.312,-33.046 c -6.23,0.615 -12.461,1.225 -18.692,1.832 -6.496,9.111 -13.011,18.21 -19.541,27.298 0.038,0.068 0.072,0.138 0.109,0.206 z m 21.517,152.48 -2.097,-4.881 c -16.599,-5.267 -47.885,-18.125 -83.587,-35.979 l -3.189,4.678 c 40.13,18.995 74.441,31.629 88.873,36.182 M -7.908,-19.708 c 0.613,-0.719 4.075,-4.318 11.717,-4.407 5.752,-8.434 34.414,-42.365 124.863,-45.718 l 0.319,-0.012 0.315,0.038 c 126.06,15.215 176.736,60.71 210.491,98.739 l 15.337,-22.38 12.213,-17.792 3.053,-4.449 1.527,-2.224 0.382,-0.555 c 0.126,-0.185 0.382,-0.517 0.573,-0.764 0.418,-0.528 0.881,-1.022 1.387,-1.467 2.001,-1.821 4.62,-2.879 7.293,-3.065 2.681,-0.21 5.445,0.582 7.667,2.096 2.204,1.531 3.922,3.829 4.688,6.412 0.778,2.568 0.718,5.41 -0.285,7.926 -0.239,0.628 -0.538,1.24 -0.883,1.812 -0.163,0.264 -0.382,0.619 -0.51,0.802 l -0.385,0.554 -1.536,2.217 -3.071,4.435 -12.291,17.738 -19.008,27.393 c 2.319,2.684 4.592,5.277 6.842,7.754 19.514,19.696 36.302,43.205 50.316,67.041 l 53.561,-4.929 1.355,1.483 c 0.518,0.565 12.676,14.007 14.682,28.228 2.012,14.264 -7.105,32.019 -7.495,32.767 l -1,1.926 -29.993,3.219 c 9.07,21.809 15.264,40.728 18.519,53.13 l 0.679,2.579 -2.104,1.638 c -49.561,38.622 -101.58,71.933 -154.609,99.009 l -1.393,0.711 -1.51,-0.412 c -12.64,-3.447 -50.921,-17.129 -95.791,-38.453 l -11.037,16.193 -2.007,0.101 c -0.757,0.041 -18.87,0.861 -31.116,-6.646 -12.282,-7.528 -20.17,-25.862 -20.501,-26.638 l -0.847,-1.998 7.518,-11.399 C 105.702,247.226 56.541,212.191 28.733,171.449 -11.859,111.975 -10.291,35.128 -7.484,3.346 -15.768,-9.773 -8.953,-18.499 -7.908,-19.708"
             style="fill:#000000;fill-opacity:1;fill-rule:nonzero;stroke:none"
             id="path990" />
        </g>
      </g>
    </g>
  </g>
</svg>
