<svg xmlns="http://www.w3.org/2000/svg" width="712" height="712" viewBox="0 0 712 712" version="1.1">
	<path d="M 359 131.639 C 357.625 131.825, 345.870 132.652, 332.877 133.476 C 292.077 136.063, 271.654 140.064, 253.500 149.026 C 208.748 171.117, 194.232 180.659, 172.979 201.956 C 166.643 208.305, 158.494 217.325, 154.870 222 C 124.964 260.585, 104.471 309.799, 92.411 372 C 90.319 382.791, 89.630 390.215, 88.977 409 C 88.528 421.925, 87.016 444.425, 85.617 459 C 84.219 473.575, 82.768 492.986, 82.392 502.135 L 81.709 518.769 86.604 522.370 C 95.245 528.726, 98.316 529.547, 135.571 535.464 C 141.369 536.385, 154.521 537.249, 166.571 537.501 C 178.082 537.741, 198.075 538.625, 211 539.465 C 241.994 541.479, 275.257 541.462, 290.965 539.424 L 303.114 537.848 315.807 546.099 C 322.788 550.638, 330.750 555.791, 333.500 557.550 C 352.672 569.817, 359.735 574.480, 364.686 578.137 C 369.574 581.748, 370.954 582.283, 375.011 582.140 C 383.607 581.836, 463.175 576.158, 463.492 575.827 C 463.663 575.647, 465.468 564.925, 467.502 552 C 471.159 528.767, 471.236 528.470, 474.324 525.881 L 477.448 523.263 481.974 525.228 C 484.463 526.309, 500.889 532.597, 518.476 539.200 C 555.333 553.040, 568 558.909, 568 562.148 C 568 564.181, 568.324 564.248, 575.250 563.645 C 582.136 563.045, 587.442 563.352, 617.278 566.071 C 631.771 567.391, 641.159 566.486, 649.680 562.944 L 654.821 560.808 655.610 550.154 C 656.888 532.916, 656.445 511.433, 654.628 502.500 C 653.733 498.100, 653 494.221, 653 493.880 C 653 493.539, 657.778 491.064, 663.619 488.380 L 674.237 483.500 673.568 472 C 672.545 454.419, 669.224 427.556, 665.471 406.500 C 650.395 321.923, 618.146 255.131, 568.391 205.439 C 545.015 182.093, 528.743 171.116, 498.146 158.052 C 464.197 143.556, 430.381 134.901, 396.500 132.036 C 385.291 131.088, 364.672 130.869, 359 131.639 M 367.500 137.026 C 357.652 138.103, 352 143.435, 352 151.650 C 352 154.044, 350.650 159.900, 349 164.662 C 347.122 170.082, 346 175.317, 346 178.660 L 346 184 358.273 184 C 365.023 184, 378.860 184.687, 389.023 185.527 C 416.055 187.762, 451.009 187.325, 453.614 184.719 C 453.801 184.532, 452.278 181.503, 450.227 177.988 C 443.230 165.992, 425.093 150.006, 408 140.768 C 401.562 137.289, 401.362 137.251, 387 136.867 C 379.025 136.654, 370.250 136.726, 367.500 137.026 M 321.333 139.466 C 305.937 141.856, 292.925 149.999, 275.510 168.143 C 270.203 173.671, 266.059 178.392, 266.299 178.632 C 267.030 179.363, 295.576 181.796, 311 182.442 C 318.975 182.776, 328.442 183.300, 332.038 183.605 L 338.576 184.160 339.791 175.760 C 341.491 164.001, 344.745 151.599, 348.057 144.250 L 350.875 138 340.187 138.099 C 334.309 138.153, 325.825 138.768, 321.333 139.466 M 429.142 146.654 C 440.054 156.132, 458.577 175.648, 460.959 180.177 C 463.341 184.705, 463.592 184.872, 468.959 185.490 C 474.097 186.082, 486.567 185.173, 503.500 182.972 C 507.350 182.471, 515 182.040, 520.500 182.013 L 530.500 181.964 521.500 176.851 C 500.557 164.954, 478.127 155.293, 457.996 149.499 C 448.654 146.810, 427.067 142, 424.341 142 C 424.035 142, 426.195 144.094, 429.142 146.654 M 284.238 144.110 C 272.177 146.120, 258.603 152.215, 235.776 165.871 C 228.316 170.334, 221.205 174.359, 219.974 174.814 C 216.821 175.980, 244.583 179.446, 250.996 178.687 C 257.394 177.929, 261.778 175.583, 263.837 171.816 C 265.741 168.333, 281.834 152.303, 287.922 147.826 C 290.165 146.177, 293.237 144.455, 294.750 143.999 C 297.253 143.246, 297.141 143.175, 293.500 143.203 C 291.300 143.220, 287.132 143.628, 284.238 144.110 M 211.064 185.880 C 208.139 191.346, 195.153 225.164, 193.739 231 C 192.872 234.575, 190.724 245.319, 188.965 254.876 C 187.206 264.433, 184.714 275.665, 183.427 279.837 C 182.140 284.008, 181.180 287.502, 181.294 287.602 C 181.600 287.870, 261.170 290.010, 270.639 290.005 L 278.777 290 279.370 286.750 C 279.695 284.962, 280.873 270.641, 281.987 254.925 C 284.032 226.051, 285.973 208.056, 288.363 195.793 L 289.670 189.086 287.085 188.523 C 277.660 186.467, 259.025 184.899, 237.369 184.338 L 212.237 183.688 211.064 185.880 M 194 192.618 C 175.792 207.156, 159.272 224.957, 147.708 242.500 C 141.494 251.928, 126.356 281.689, 127.296 282.630 C 128.575 283.908, 136.272 285.038, 147 285.523 C 153.325 285.809, 161.558 286.234, 165.295 286.467 C 171.916 286.880, 172.118 286.822, 173.128 284.196 C 173.698 282.713, 177.698 267.775, 182.017 251 C 190.135 219.467, 194.781 204.722, 200.529 192.250 C 202.366 188.262, 203.787 185.008, 203.685 185.017 C 203.583 185.026, 199.225 188.447, 194 192.618 M 531 187.559 C 530.175 187.738, 525.170 188.174, 519.877 188.526 L 510.255 189.168 519.731 204.834 C 535.460 230.838, 542.855 246.980, 547.064 264.500 C 548.121 268.900, 548.989 274.188, 548.993 276.250 C 548.997 278.313, 549.264 280, 549.587 280 C 551.042 280, 576.210 276.878, 582.500 275.917 C 590.159 274.748, 605.969 270.333, 607.396 268.966 C 607.916 268.468, 606.591 265.251, 604.241 261.304 C 594.483 244.912, 575.677 222.699, 552.075 199.687 C 538.572 186.521, 537.802 186.078, 531 187.559 M 296.575 189.106 C 296.316 189.873, 295.172 196.800, 294.035 204.500 C 292.897 212.200, 291.725 219.850, 291.429 221.500 C 291.134 223.150, 290.493 236.507, 290.004 251.182 C 289.515 265.857, 288.804 280.607, 288.425 283.960 L 287.735 290.055 354.905 289.777 C 413.318 289.536, 422.197 289.304, 423.021 288 C 424.296 285.983, 424.249 271.970, 422.934 262.322 C 421.346 250.663, 418.696 240.913, 410.278 215.750 L 402.666 193 394.054 193 C 389.317 193, 372.179 192.120, 355.971 191.044 C 307.455 187.823, 297.124 187.486, 296.575 189.106 M 493 192.051 C 490.525 192.491, 470.837 192.885, 449.250 192.926 C 427.663 192.967, 410 193.351, 410 193.779 C 410 194.208, 413.400 204.671, 417.556 217.029 C 428.334 249.078, 432 265.788, 432 282.860 L 432 289.272 446.750 288.749 C 454.863 288.461, 477.025 286.798, 496 285.053 C 514.975 283.308, 533.245 281.654, 536.599 281.377 C 542.173 280.916, 542.672 280.685, 542.395 278.687 C 539.105 254.972, 531.659 236.854, 513.770 209.032 C 509.338 202.139, 504.989 195.265, 504.106 193.756 C 502.380 190.808, 501.094 190.611, 493 192.051 M 608.412 275.971 C 607.264 276.436, 603.776 277.134, 600.662 277.523 C 597.548 277.912, 595 278.591, 595 279.031 C 595 279.472, 599.222 289.658, 604.382 301.666 C 619.488 336.817, 624.618 351.859, 627.776 370.250 L 629.450 380 635.205 380 C 641.642 380, 647.965 377.887, 649.664 375.167 C 652.055 371.337, 636.433 324.319, 624.356 299 C 617.900 285.465, 612.047 274.945, 611.039 275.063 C 610.742 275.098, 609.560 275.507, 608.412 275.971 M 577 282.702 C 575.075 282.913, 562.700 284.920, 549.500 287.163 C 531.163 290.280, 521.789 291.362, 509.775 291.752 L 494.051 292.262 495.846 294.881 C 498.824 299.224, 500.851 306.008, 502.007 315.500 C 502.609 320.450, 503.536 327.875, 504.066 332 C 506.099 347.833, 511.936 353.252, 526.500 352.823 C 533.308 352.623, 535.543 353.010, 541.500 355.423 C 554.707 360.771, 572.510 370.189, 584.500 378.170 C 595.807 385.696, 596.677 386.095, 599.571 385.078 C 601.260 384.485, 606.112 384, 610.352 384 C 616.624 384, 618.182 383.689, 618.702 382.335 C 619.889 379.242, 617.149 357.579, 614.107 346 C 610.739 333.180, 606.255 321.070, 596.252 297.776 L 589.500 282.052 585 282.186 C 582.525 282.260, 578.925 282.492, 577 282.702 M 123.048 292.760 C 120.342 294.952, 115.593 308.137, 112.472 322.127 C 111.169 327.972, 108.066 339.897, 105.578 348.627 C 99.519 369.889, 97.927 378.066, 97.695 389.136 L 97.500 398.450 104 399.634 C 107.575 400.285, 110.578 400.744, 110.673 400.653 C 110.768 400.562, 112.016 390.140, 113.445 377.494 C 114.875 364.847, 117.139 347.746, 118.477 339.492 C 120.919 324.426, 126.071 302.603, 128.066 298.877 C 129.378 296.425, 128.322 291, 126.531 291 C 125.811 291, 124.244 291.792, 123.048 292.760 M 470 293.141 C 465.325 293.622, 455.200 294.875, 447.500 295.925 C 435.027 297.626, 429.384 297.772, 395.750 297.266 L 358 296.698 358 341.849 C 358 367.083, 358.387 387, 358.878 387 C 359.360 387, 360.293 386.352, 360.951 385.559 C 361.609 384.766, 366.052 381.447, 370.824 378.183 C 399.323 358.688, 430.054 347.372, 460.750 345.069 C 471.254 344.280, 491.632 345.117, 497.441 346.574 C 499.867 347.183, 500 347.009, 500 343.216 C 500 333.096, 493.043 307.968, 486.858 295.750 C 484.721 291.528, 485.097 291.587, 470 293.141 M 135.552 297.101 C 131.267 307.663, 129.749 313.550, 126.972 330.370 C 124.072 347.940, 120.761 375.121, 119.447 392.156 C 118.805 400.480, 118.867 400.858, 121.069 402.037 C 122.328 402.711, 126.857 403.654, 131.134 404.132 C 135.411 404.611, 146.918 406.549, 156.705 408.441 C 178.434 412.640, 188.936 414, 199.621 414 L 207.795 414 208.415 400.250 C 210.188 360.970, 214.658 324.130, 220.673 299.250 C 221.207 297.039, 221.054 297, 211.858 296.979 C 206.711 296.968, 195.750 296.283, 187.500 295.456 C 179.250 294.630, 164.588 293.672, 154.918 293.327 L 137.337 292.702 135.552 297.101 M 227.191 301.626 C 224.504 306.952, 224.032 309.458, 222.130 328.500 C 219.640 353.427, 218.327 372.171, 217.397 396.099 L 216.712 413.697 239.606 414.599 C 274.001 415.953, 315.882 415.734, 326.500 414.145 C 335.984 412.725, 338.715 411.526, 343.347 406.750 C 349.279 400.634, 350.242 396.514, 351.236 373 C 352.121 352.058, 351.938 298.490, 350.979 297.761 C 350.716 297.560, 344.650 297.729, 337.500 298.136 C 325.738 298.804, 291.736 298.154, 246.827 296.402 L 230.154 295.751 227.191 301.626 M 457.500 353.069 C 440.644 354.391, 423.543 358.683, 409.390 365.144 L 402.500 368.288 408.500 369.554 C 411.800 370.249, 418.680 372.184, 423.788 373.854 C 440.358 379.268, 446.998 379.174, 454.540 373.417 C 458.626 370.299, 461.202 369.542, 486.696 363.975 C 501.939 360.646, 514.567 357.766, 514.758 357.575 C 516.052 356.282, 476.638 351.633, 469 352.178 C 468.175 352.237, 463 352.638, 457.500 353.069 M 510 363.668 C 498.671 365.459, 485.015 369.091, 470.575 374.154 C 461.184 377.446, 452.712 380.386, 451.750 380.687 C 450.788 380.987, 450 381.623, 450 382.099 C 450 382.575, 455.460 394.785, 462.134 409.232 C 468.808 423.680, 476.833 441.125, 479.967 448 C 483.101 454.875, 487.407 464.253, 489.535 468.840 L 493.406 477.180 498.953 476.505 C 502.004 476.134, 507.650 475.158, 511.500 474.336 C 515.350 473.515, 522.291 472.718, 526.925 472.565 C 534.775 472.307, 535.411 472.125, 536.249 469.894 C 544.538 447.831, 563.161 372.368, 560.707 370.787 C 558.135 369.129, 548.201 365.751, 542 364.425 C 536.062 363.155, 516.213 362.685, 510 363.668 M 388.500 375.877 C 375.863 379.198, 354.323 397.548, 342.062 415.437 C 339.071 419.801, 334.226 428.091, 331.295 433.858 L 325.967 444.345 341.733 450.048 C 350.405 453.184, 361.775 457.634, 367 459.937 C 372.225 462.240, 376.950 464.322, 377.500 464.564 C 378.745 465.111, 380.363 462.308, 389.667 443.500 C 401.360 419.862, 403.978 414.943, 408.614 407.897 C 413.462 400.528, 425.592 388.530, 431.193 385.563 L 434.850 383.626 420.175 379.841 C 404.992 375.925, 393.696 374.511, 388.500 375.877 M 567.089 389.718 C 564.894 396.748, 560.104 414.425, 556.445 429 C 552.785 443.575, 548.054 460.675, 545.931 467 L 542.070 478.500 544.556 483.642 C 547.727 490.201, 554.646 496.655, 559.479 497.562 C 565.660 498.722, 573.870 496.323, 588.500 489.084 C 596.200 485.273, 604.225 481.453, 606.333 480.594 C 609.213 479.421, 631.302 466.407, 633.895 464.356 C 634.643 463.764, 627.708 445.476, 622.951 435.500 C 612.783 414.172, 596.166 394.122, 578.791 382.218 L 571.081 376.936 567.089 389.718 M 647 386.216 C 643.489 387.461, 636.618 388.514, 628 389.130 C 620.575 389.660, 612.118 390.766, 609.206 391.587 L 603.912 393.081 609.034 398.791 C 624.333 415.848, 633.849 435.009, 648.037 477.330 L 651.333 487.160 654.790 486.512 C 656.691 486.155, 659.128 485.331, 660.206 484.682 C 662.675 483.194, 665.515 477.683, 666.441 472.583 C 667.606 466.177, 665.111 445.212, 659.829 417 C 657.099 402.425, 654.613 389.038, 654.302 387.250 C 653.992 385.462, 653.460 384.060, 653.119 384.133 C 652.779 384.206, 650.025 385.144, 647 386.216 M 436.905 391.134 C 424.225 399.319, 412.261 414.271, 402.205 434.500 C 395.506 447.977, 387.724 465.080, 388.152 465.385 C 393.364 469.092, 469.525 510.863, 470.054 510.304 C 470.474 509.862, 472.497 506.350, 474.550 502.500 C 476.603 498.650, 480.113 492.625, 482.349 489.111 L 486.416 482.722 482.679 471.737 C 478.480 459.395, 473.108 446.809, 460.811 420.500 C 456.184 410.600, 450.846 399.013, 448.949 394.751 C 447.052 390.489, 445.007 387.002, 444.405 387.001 C 443.803 387, 440.428 388.860, 436.905 391.134 M 96.640 409.250 C 95.686 410.778, 95.030 416.314, 94.598 426.500 C 94.248 434.750, 93.305 449.150, 92.501 458.500 C 91 475.979, 90.526 507.499, 91.662 514.373 C 92.251 517.942, 92.781 518.470, 98.401 521.100 C 106.872 525.064, 118.821 527.955, 129.750 528.684 L 139 529.302 139.001 524.901 C 139.003 509.004, 142.298 466.162, 146.097 432.644 C 147.210 422.823, 147.911 414.577, 147.654 414.321 C 147.142 413.808, 102.640 407, 99.804 407 C 98.837 407, 97.413 408.012, 96.640 409.250 M 153.556 417.250 C 152.686 420.105, 148.829 463.957, 147.816 482.523 C 147.057 496.425, 147.032 506.753, 147.736 516.314 C 148.293 523.886, 148.922 530.255, 149.133 530.467 C 150.329 531.662, 205.901 534.320, 231.454 534.403 L 261.408 534.500 263.380 528.500 C 265.021 523.507, 265.396 519.226, 265.614 503 C 265.761 492.044, 266.998 471.561, 268.438 456.252 C 269.847 441.265, 271 427.721, 271 426.155 L 271 423.306 250.250 422.623 C 227.902 421.887, 196.503 419.798, 172.610 417.458 C 154.533 415.688, 154.034 415.682, 153.556 417.250 M 306 421.045 C 294.175 422.021, 283.038 422.859, 281.250 422.909 C 278.007 423, 278 423.012, 278 428.255 C 278 431.146, 277.101 442.058, 276.003 452.505 C 273.354 477.698, 272.582 495.832, 273.767 505 C 274.546 511.029, 274.386 514.462, 272.954 522.500 C 271.974 528, 271.339 532.669, 271.544 532.874 C 271.748 533.080, 276.772 532.742, 282.708 532.122 C 288.644 531.502, 294.063 530.996, 294.750 530.997 C 295.663 530.999, 296.005 528.375, 296.018 521.250 C 296.050 504.140, 299.335 486.566, 306.082 467.408 C 309.596 457.427, 319.723 435.721, 325.320 426.171 C 329.190 419.569, 329.462 418.916, 328.250 419.136 C 327.837 419.211, 317.825 420.070, 306 421.045 M 322.184 457.250 C 318.279 467.714, 315.857 476.722, 313.933 487.937 C 311.720 500.830, 310.412 526.948, 311.751 531.500 C 313.208 536.454, 323.296 543.703, 352.904 561.070 C 357.526 563.782, 361.405 566, 361.524 566 C 361.643 566, 362.268 560.938, 362.913 554.750 C 367.385 511.843, 369.303 498.747, 373.448 482.803 C 374.779 477.686, 376.170 472.712, 376.541 471.750 C 376.933 470.730, 376.751 470, 376.105 470 C 375.495 470, 368.009 467.091, 359.470 463.535 C 343.513 456.890, 329.333 452, 326.020 452 C 324.672 452, 323.592 453.478, 322.184 457.250 M 624 477.151 C 618.775 481.002, 610.450 486.094, 605.500 488.465 C 600.550 490.837, 590.221 495.769, 582.546 499.426 C 574.871 503.083, 568.452 506.215, 568.281 506.385 C 568.111 506.556, 569.120 509.204, 570.523 512.269 C 573.609 519.009, 575.663 528.582, 576.473 540 C 576.805 544.675, 577.312 550.413, 577.600 552.750 L 578.123 557 611.971 557 L 645.819 557 647.096 549.750 C 649.730 534.797, 648.054 500.064, 644.431 494.535 C 643.674 493.380, 642.582 489.074, 642.005 484.967 C 641.428 480.860, 640.687 476.600, 640.359 475.500 C 639.502 472.621, 636.947 469.988, 635.095 470.074 C 634.218 470.114, 629.225 473.299, 624 477.151 M 383.572 479.250 C 381.393 486.959, 377.337 505.785, 374.899 519.500 C 372.165 534.886, 370.902 572.989, 373.126 573.018 C 373.882 573.028, 383.292 573.463, 394.037 573.985 C 425.652 575.520, 455.003 572.535, 457.066 567.573 C 457.540 566.433, 459.778 556.050, 462.040 544.500 C 464.301 532.950, 466.374 522.555, 466.646 521.400 C 467.066 519.622, 465.028 517.927, 453.321 510.319 C 435.470 498.718, 422.726 491.290, 408.200 484.020 C 398.039 478.936, 386.854 474, 385.491 474 C 385.252 474, 384.388 476.363, 383.572 479.250 M 502.998 498.603 C 515.971 500.266, 540.162 501.754, 539.205 500.829 C 537.213 498.904, 520.791 497.009, 507.140 497.128 L 492.500 497.256 502.998 498.603 M 491 505.471 C 491 505.713, 492.125 507.569, 493.500 509.595 C 495.116 511.977, 496 514.666, 496 517.205 C 496 521.105, 496.047 521.152, 503.250 524.462 C 507.238 526.294, 518.375 530.530, 528 533.876 C 537.625 537.221, 549.886 542.158, 555.247 544.847 L 564.994 549.735 566.066 545.755 C 567.608 540.030, 566.432 535.068, 560.946 524.143 C 558.283 518.839, 555.663 513.319, 555.124 511.875 C 554.004 508.873, 552.904 508.580, 537 507.054 C 525.512 505.952, 491 504.764, 491 505.471 M 5.789 711.741 C 9.248 711.937, 14.648 711.936, 17.789 711.738 C 20.930 711.540, 18.100 711.380, 11.500 711.382 C 4.900 711.384, 2.330 711.546, 5.789 711.741 " stroke="none" fill="black" fill-rule="evenodd"/>
</svg>