<svg xmlns="http://www.w3.org/2000/svg" width="612" height="406" viewBox="0 0 612 406" version="1.1">
	<path d="M 228.500 76.676 C 226.300 76.928, 224.072 77.554, 223.550 78.067 C 223.028 78.580, 220.327 79.014, 217.550 79.032 C 214.705 79.050, 211.653 79.705, 210.559 80.532 C 209.491 81.339, 206.890 82, 204.777 82 C 202.286 82, 200.735 82.527, 200.362 83.500 C 200.045 84.325, 198.764 85, 197.515 85 C 194.575 85, 192.039 87.788, 193.921 88.951 C 195.653 90.021, 194.424 90.611, 188.750 91.434 C 183.694 92.167, 183.014 93.281, 185.163 97.316 C 187.229 101.193, 189.208 101.935, 197.576 101.968 C 207.784 102.008, 209.633 103.527, 210.278 112.406 C 210.585 116.642, 211.228 118.694, 212.550 119.660 C 213.980 120.706, 214.125 121.275, 213.196 122.204 C 211.252 124.148, 211.767 129.479, 214.102 131.593 C 215.259 132.639, 216.845 134.734, 217.628 136.248 C 218.452 137.841, 219.883 139, 221.026 139 C 222.112 139, 223 139.450, 223 140 C 223 140.550, 223.681 141, 224.514 141 C 226.720 141, 231.936 134.878, 231.971 132.250 C 231.988 130.932, 232.620 130, 233.497 130 C 234.321 130, 236.738 128.425, 238.868 126.500 C 241.738 123.907, 243.648 123, 246.236 123 C 248.216 123, 250.832 122.133, 252.273 121 C 253.671 119.900, 255.291 119, 255.873 119 C 257.384 119, 258.775 115.966, 258.762 112.698 C 258.755 111.156, 259.706 108.877, 260.875 107.633 C 263.131 105.231, 263.640 102.514, 262.020 101.513 C 261.401 101.130, 261.477 100.210, 262.226 99.010 C 263.184 97.476, 263.087 96.754, 261.721 95.244 C 260.115 93.470, 260.218 93.195, 263.765 89.769 C 265.819 87.786, 268.625 86.014, 270 85.831 C 271.408 85.645, 272.500 84.845, 272.500 84 C 272.500 82.788, 271.204 82.552, 265.750 82.772 C 260.298 82.992, 259 82.756, 259 81.545 C 259 78.192, 254.221 76.650, 243.152 76.430 C 237.293 76.313, 230.700 76.424, 228.500 76.676 M 231 78.063 C 229.625 78.648, 224.787 79.390, 220.249 79.712 C 215.176 80.072, 211.566 80.818, 210.877 81.649 C 210.260 82.392, 208.033 83, 205.927 83 C 203.688 83, 201.768 83.582, 201.300 84.404 C 200.860 85.176, 199.382 85.963, 198.015 86.154 C 196.134 86.416, 195.527 87.103, 195.515 88.986 C 195.502 91.210, 194.944 91.562, 190.250 92.313 C 187.363 92.775, 185 93.611, 185 94.172 C 185 94.733, 185.931 96.498, 187.068 98.096 C 189.065 100.899, 189.422 101, 197.381 101 C 205.109 101, 205.794 101.176, 208.313 103.805 C 210.222 105.798, 211 107.662, 211 110.246 C 211 112.246, 211.430 114.148, 211.956 114.473 C 212.482 114.798, 212.672 115.690, 212.379 116.455 C 212.077 117.242, 212.784 118.349, 214.005 119.003 C 215.992 120.066, 216.038 120.300, 214.583 121.908 C 212.379 124.344, 212.609 127.954, 215.139 130.648 C 216.316 131.900, 217.789 133.950, 218.414 135.204 C 219.039 136.457, 220.439 137.651, 221.525 137.857 C 222.611 138.063, 223.789 138.690, 224.143 139.251 C 225.089 140.753, 230.936 133.901, 230.971 131.250 C 230.988 129.932, 231.620 129, 232.497 129 C 233.321 129, 235.738 127.425, 237.868 125.500 C 240.738 122.907, 242.648 122, 245.236 122 C 247.158 122, 249.803 121.177, 251.115 120.170 C 252.427 119.164, 254.287 118.053, 255.250 117.702 C 256.456 117.261, 257 115.988, 257 113.608 C 257 111.345, 257.899 109.086, 259.606 107.057 C 261.657 104.618, 261.964 103.662, 261.048 102.558 C 260.161 101.489, 260.178 100.688, 261.118 99.182 C 262.141 97.545, 262.053 96.910, 260.606 95.463 C 258.946 93.803, 259.069 93.506, 263.139 89.359 C 265.491 86.961, 268.223 85, 269.208 85 C 270.194 85, 271 84.550, 271 84 C 271 83.450, 269.677 83, 268.059 83 C 266.441 83, 264.840 83.450, 264.500 84 C 263.288 85.961, 258.987 85.096, 258.079 82.709 C 256.460 78.449, 254.414 77.684, 243.697 77.333 C 237.914 77.144, 232.418 77.460, 231 78.063 M 167.297 80.447 C 164.986 81.170, 162.882 81.549, 162.623 81.289 C 161.686 80.352, 158 82.169, 158 83.567 C 158 84.535, 156.876 85, 154.535 85 C 150.115 85, 148.130 87.903, 150.861 90.374 C 151.849 91.268, 153.129 92, 153.706 92 C 154.283 92, 155.315 92.675, 156 93.500 C 156.685 94.325, 158.540 95, 160.122 95 C 162.978 95, 164.145 97.175, 162 98.500 C 160.103 99.672, 161.008 101, 163.750 101.068 L 166.500 101.135 164.152 102.264 C 162.124 103.239, 161.553 103.060, 159.957 100.946 C 158.283 98.731, 158.262 98.445, 159.738 97.923 C 161.072 97.450, 161.118 97.191, 159.993 96.495 C 159.143 95.971, 158.468 96.096, 158.226 96.823 C 158.010 97.470, 156.985 98, 155.948 98 C 154.656 98, 154.250 97.512, 154.658 96.449 C 155.132 95.214, 154.740 95.027, 152.736 95.530 C 151.192 95.918, 149.922 95.683, 149.453 94.924 C 148.903 94.034, 149.295 93.844, 150.844 94.249 C 152.030 94.559, 153 94.405, 153 93.906 C 153 93.408, 151.634 93, 149.965 93 C 147.240 93, 147.039 93.204, 148 95 C 148.589 96.100, 149.452 97, 149.919 97 C 151.288 97, 152.010 101.283, 150.872 102.654 C 149.517 104.286, 150.607 106, 153 106 C 155.753 106, 156.591 103.906, 154.462 102.348 C 152.938 101.234, 152.891 101, 154.194 101 C 155.061 101, 156.520 102.144, 157.436 103.543 C 159.001 105.931, 159.541 106.068, 166.301 105.793 C 172.694 105.533, 173.500 105.280, 173.500 103.533 C 173.500 102.451, 174.960 99.976, 176.745 98.033 C 178.530 96.090, 179.993 93.938, 179.995 93.250 C 179.998 92.563, 180.605 92, 181.345 92 C 182.085 92, 183.505 91.100, 184.500 90 C 185.495 88.900, 186.860 88, 187.533 88 C 188.205 88, 189.346 87.288, 190.068 86.418 C 190.790 85.548, 192.950 84.086, 194.868 83.168 C 196.786 82.251, 198.538 80.938, 198.761 80.250 C 199.334 78.483, 173.055 78.648, 167.297 80.447 M 168 81.552 C 165.525 82.332, 162.488 82.976, 161.250 82.985 C 160.012 82.993, 159 83.450, 159 84 C 159 84.550, 158.887 85.322, 158.750 85.717 C 158.613 86.111, 160.525 86.327, 163 86.197 C 168.296 85.919, 171.935 87.607, 168.229 88.622 C 166.346 89.138, 166.170 89.499, 167.196 90.737 C 168.208 91.956, 168.061 92.532, 166.395 93.881 C 165.273 94.789, 164.093 96.538, 163.771 97.766 C 163.216 99.892, 163.474 100, 169.094 100 C 173.375 100, 175 99.630, 175 98.655 C 175 97.915, 175.900 96.495, 177 95.500 C 178.100 94.505, 179 93.129, 179 92.443 C 179 91.757, 180.238 90.688, 181.750 90.067 C 185.764 88.419, 188.774 86.561, 191.352 84.139 C 192.604 82.963, 194.136 82, 194.755 82 C 195.375 82, 196.160 81.550, 196.500 81 C 197.486 79.405, 173.329 79.873, 168 81.552 M 370.625 82.708 C 370.311 83.022, 370.294 83.666, 370.586 84.139 C 371.288 85.275, 374 85.250, 374 84.107 C 374 83.003, 371.405 81.928, 370.625 82.708 M 375 85.607 C 375 86.625, 375.550 87.003, 376.500 86.638 C 377.325 86.322, 378 86.499, 378 87.031 C 378 87.564, 379.350 88, 381 88 C 383.096 88, 384 87.513, 384 86.383 C 384 85.198, 383.333 84.894, 381.500 85.245 C 380.125 85.508, 379 85.335, 379 84.861 C 379 84.388, 378.100 84, 377 84 C 375.830 84, 375 84.667, 375 85.607 M 421.250 85.496 C 419.031 88.016, 419.699 90.291, 422.500 89.755 C 424.442 89.384, 425 89.692, 425 91.139 C 425 92.644, 425.766 93, 429 93 C 431.667 93, 432.917 93.417, 432.750 94.250 C 432.613 94.937, 433.063 95.455, 433.750 95.400 C 434.438 95.345, 436.350 95.233, 438 95.150 C 439.824 95.059, 441 94.455, 441 93.608 C 441 91.730, 436.174 90.611, 434.404 92.079 C 433.276 93.016, 433 92.841, 433 91.190 C 433 90.052, 432.155 88.867, 431.108 88.534 C 430.067 88.204, 428.984 87.049, 428.702 85.967 C 428.084 83.607, 423.186 83.297, 421.250 85.496 M 422.250 86.496 C 420.449 88.541, 420.688 89.003, 423.428 88.777 C 424.763 88.666, 425.637 88.221, 425.369 87.788 C 425.101 87.355, 425.610 87, 426.500 87 C 427.390 87, 427.840 86.550, 427.500 86 C 426.612 84.563, 423.711 84.837, 422.250 86.496 M 151.345 87.543 C 151.019 88.392, 150.921 89.181, 151.126 89.297 C 151.332 89.412, 152.944 90.518, 154.710 91.753 C 158.282 94.254, 160.995 94.605, 162.800 92.800 C 164.711 90.889, 164.264 90.174, 159.812 88.023 C 154.803 85.603, 152.147 85.453, 151.345 87.543 M 353.243 87.250 C 353.901 89.261, 360.612 90.567, 362.450 89.042 C 365.175 86.780, 364.140 86, 358.417 86 C 354.398 86, 352.948 86.350, 353.243 87.250 M 370 86.833 C 370 88.242, 371.126 88.889, 372.598 88.324 C 374.685 87.523, 374.293 86, 372 86 C 370.900 86, 370 86.375, 370 86.833 M 163.442 87.906 C 163.750 88.404, 164.902 88.577, 166.001 88.289 C 168.753 87.570, 168.505 87, 165.441 87 C 164.034 87, 163.134 87.408, 163.442 87.906 M 356.500 88 C 359.279 89.194, 362 89.194, 362 88 C 362 87.450, 360.313 87.032, 358.250 87.070 C 355.242 87.127, 354.896 87.311, 356.500 88 M 365 88 C 365 88.550, 365.675 89, 366.500 89 C 367.325 89, 368 88.550, 368 88 C 368 87.450, 367.325 87, 366.500 87 C 365.675 87, 365 87.450, 365 88 M 144 89 C 144 89.550, 144.675 90, 145.500 90 C 146.325 90, 147 89.550, 147 89 C 147 88.450, 146.325 88, 145.500 88 C 144.675 88, 144 88.450, 144 89 M 310.250 88.737 C 304.052 89.171, 303.767 90.101, 308.250 95.267 C 311.964 99.548, 312.976 99.789, 315.500 97 C 317.651 94.623, 319 94.431, 319 96.500 C 319 97.433, 319.944 98, 321.500 98 C 322.875 98, 324 97.620, 324 97.155 C 324 95.703, 320.380 92.957, 319.509 93.748 C 319.052 94.162, 318.982 93.972, 319.352 93.326 C 319.733 92.660, 319.262 91.933, 318.262 91.648 C 317.293 91.370, 318.192 91.387, 320.261 91.685 C 323.871 92.205, 327 90.901, 327 88.878 C 327 88.028, 321.099 87.978, 310.250 88.737 M 315.461 89.794 C 316.392 90.725, 324.016 90.783, 324.584 89.864 C 324.949 89.274, 323.190 88.984, 320.104 89.125 C 317.309 89.252, 315.220 89.553, 315.461 89.794 M 426.529 89.805 C 425.219 91.115, 426.249 92, 429.083 92 C 431.105 92, 432.023 91.570, 431.751 90.750 C 431.334 89.499, 427.524 88.809, 426.529 89.805 M 137.324 91.598 C 137.010 92.416, 136.921 93.179, 137.126 93.293 C 143.074 96.587, 145.156 97.244, 146.235 96.165 C 147.809 94.591, 145.535 92.301, 141.150 91.043 C 138.578 90.305, 137.775 90.422, 137.324 91.598 M 306 90.804 C 306 91.246, 307.462 93.016, 309.250 94.736 L 312.500 97.865 315.206 95.519 L 317.912 93.172 315.491 91.586 C 312.997 89.952, 306 89.375, 306 90.804 M 164.564 92.707 C 164.022 94.132, 164.136 94.247, 165.124 93.267 C 165.808 92.588, 166.115 91.781, 165.807 91.474 C 165.499 91.166, 164.940 91.721, 164.564 92.707 M 139.648 92.993 C 140.829 93.470, 142.093 94.341, 142.457 94.930 C 143.398 96.452, 145 96.255, 145 94.617 C 145 93.261, 141.971 91.979, 139 92.077 C 138.112 92.106, 138.376 92.480, 139.648 92.993 M 434.698 93.344 C 434.329 94.305, 434.865 94.557, 436.580 94.230 C 437.898 93.978, 438.730 93.373, 438.429 92.886 C 437.599 91.542, 435.280 91.827, 434.698 93.344 M 126.250 93.662 C 125.563 93.940, 125 94.833, 125 95.647 C 125 97.875, 131.382 97.036, 131.815 94.750 C 132.057 93.475, 131.517 93.021, 129.823 93.079 C 128.545 93.122, 126.938 93.385, 126.250 93.662 M 320 95.441 C 320 96.298, 320.450 97, 321 97 C 321.550 97, 322 96.577, 322 96.059 C 322 95.541, 321.550 94.840, 321 94.500 C 320.450 94.160, 320 94.584, 320 95.441 M 126.750 95.662 C 127.438 95.940, 128.563 95.940, 129.250 95.662 C 129.938 95.385, 129.375 95.158, 128 95.158 C 126.625 95.158, 126.063 95.385, 126.750 95.662 M 137.583 99.031 C 143.607 105.291, 149 106.472, 149 101.531 C 149 99.401, 148.537 99, 146.083 99 C 144.479 99, 143 99.500, 142.796 100.112 C 142.590 100.730, 141.331 100.071, 139.963 98.629 C 138.608 97.202, 136.863 96.027, 136.083 96.017 C 135.199 96.006, 135.763 97.139, 137.583 99.031 M 435.491 97.015 C 434.444 98.709, 428.465 100.798, 422.551 101.537 C 418.369 102.059, 416.488 102.836, 415.086 104.618 C 413.670 106.418, 412.235 107, 409.213 107 C 404.797 107, 403.028 109.124, 405.233 111.780 C 405.930 112.620, 406.387 113.463, 406.250 113.654 C 406.113 113.844, 406.337 113.888, 406.750 113.750 C 407.163 113.612, 407.421 113.275, 407.324 113 C 407.227 112.725, 406.864 111.772, 406.518 110.881 C 405.866 109.210, 408.308 108.042, 412.513 108.014 C 413.632 108.006, 414.964 107.001, 415.513 105.750 C 416.310 103.932, 417.652 103.349, 422.500 102.712 C 425.800 102.278, 429.175 101.648, 430 101.311 C 430.825 100.974, 432.141 100.569, 432.925 100.412 C 433.709 100.254, 434.744 99.422, 435.225 98.563 C 436.334 96.580, 439.379 96.547, 441 98.500 C 441.800 99.464, 444.015 100, 447.196 100 C 451.371 100, 452.094 100.274, 451.810 101.748 C 451.625 102.710, 449.743 104.311, 447.629 105.307 C 445.514 106.303, 444.020 107.354, 444.309 107.643 C 444.598 107.931, 447.909 108.396, 451.667 108.675 C 455.425 108.954, 458.928 109.591, 459.450 110.091 C 460.982 111.557, 466.008 111.144, 466.638 109.500 C 467.661 106.836, 471.605 107.793, 474.332 111.368 C 476.710 114.486, 477.341 114.746, 482.833 114.870 C 487.988 114.987, 488.834 114.742, 489.289 113.002 C 489.704 111.417, 490.652 111, 493.847 111 C 496.066 111, 498.160 111.450, 498.500 112 C 498.840 112.550, 500.611 113, 502.437 113 C 504.262 113, 506.315 113.675, 507 114.500 C 507.768 115.425, 509.963 116, 512.728 116 C 516.017 116, 517.981 116.647, 520.100 118.431 C 522.541 120.485, 523.911 120.828, 528.946 120.645 C 532.223 120.526, 535.226 120.107, 535.619 119.714 C 536.893 118.440, 545.611 118.959, 548.685 120.493 C 550.330 121.313, 552.494 122.888, 553.493 123.993 C 554.622 125.240, 556.576 126, 558.655 126 C 562.622 126, 562.834 126.868, 559.605 129.901 C 558.048 131.364, 556.975 131.769, 556.537 131.060 C 556.166 130.460, 554.249 129.295, 552.276 128.471 C 549.012 127.107, 548.519 127.126, 546.806 128.675 C 545.440 129.912, 545.093 131.149, 545.542 133.189 C 546.124 135.843, 545.968 136, 542.734 136 C 540.580 136, 538.639 136.742, 537.500 138 C 536.167 139.473, 534.420 140, 530.868 140 C 525.436 140, 523.718 141.677, 522.602 148.064 C 521.969 151.685, 516.009 158.676, 514.684 157.351 C 514.308 156.975, 514 155.334, 514 153.705 C 514 151.429, 515.526 149.126, 520.588 143.760 C 525.376 138.684, 526.876 136.476, 526.077 135.677 C 525.278 134.878, 524.396 135.160, 522.847 136.709 C 521.087 138.468, 520.382 138.636, 518.798 137.670 C 517.165 136.673, 516.473 136.952, 514.129 139.554 L 511.378 142.609 501.939 142.216 L 492.500 141.823 488.616 145.841 C 484.350 150.254, 484.312 152.408, 488.474 153.990 C 490.692 154.834, 491 155.537, 491 159.763 C 491 164.221, 490.629 164.941, 485.956 169.538 C 483.049 172.397, 480.168 174.382, 479.157 174.221 C 478.192 174.068, 476.315 175.101, 474.985 176.516 C 472.975 178.656, 472.773 179.377, 473.790 180.795 C 476.003 183.880, 476.239 185.007, 474.989 186.513 C 473.452 188.365, 472 188.433, 472 186.654 C 472 185.913, 471.283 183.871, 470.408 182.116 C 469.191 179.677, 468.359 179.069, 466.883 179.537 C 465.612 179.940, 465.044 179.717, 465.225 178.885 C 465.757 176.436, 462.279 176.925, 460.566 179.539 C 459.011 181.912, 458.993 182.335, 460.384 183.871 C 461.257 184.837, 461.686 186.483, 461.375 187.674 C 461.073 188.829, 461.315 190.077, 461.913 190.446 C 462.511 190.816, 463 193.025, 463 195.356 C 463 198.944, 462.418 200.162, 459.208 203.297 C 456.214 206.220, 454.635 207, 451.708 207 C 449.669 207, 448 207.408, 448 207.906 C 448 208.405, 447.098 208.577, 445.995 208.288 C 443.592 207.660, 441 209.574, 441 211.976 C 441 212.929, 442.125 214.922, 443.500 216.405 C 446.603 219.753, 446.600 220.134, 443.438 223.891 L 440.876 226.936 437.328 223.718 C 435.376 221.948, 433.177 220.627, 432.441 220.782 C 431.590 220.961, 431.241 220.347, 431.481 219.097 C 432.015 216.328, 429.480 214.356, 427.500 216 C 426.230 217.054, 426 216.835, 426 214.577 C 426 210.783, 421.887 207, 417.761 207 C 415.067 207, 413.436 208.008, 409.216 212.281 C 404.670 216.885, 404 218.079, 404 221.581 C 404 225.662, 402.653 228, 400.300 228 C 399.540 228, 399 226.826, 399 225.174 C 399 223.453, 398.023 221.431, 396.500 220 C 394.581 218.197, 394 216.647, 394 213.326 C 394 210.448, 393.566 209, 392.703 209 C 391.990 209, 389.691 207.244, 387.596 205.098 C 383.851 201.264, 383.643 201.190, 375.458 200.848 C 367.834 200.529, 366.871 200.251, 364.059 197.557 C 361.673 195.271, 360.719 194.881, 359.789 195.811 C 358.015 197.585, 366.773 206.434, 368.710 204.825 C 369.743 203.969, 370.642 204.254, 372.546 206.044 L 375.034 208.381 371.314 212.190 C 368.575 214.996, 366.771 216, 364.471 216 C 362.433 216, 360.533 216.868, 359 218.500 C 357.708 219.875, 355.605 221, 354.326 221 C 352.430 221, 352 220.468, 352 218.122 C 352 216.540, 351.325 214.685, 350.500 214 C 349.675 213.315, 349 212.052, 349 211.192 C 349 210.332, 348.037 208.604, 346.861 207.352 C 345.684 206.100, 344.222 204.089, 343.611 202.884 C 342.160 200.021, 337.486 196.581, 336.161 197.400 C 335.128 198.039, 336.032 200.367, 340.856 209.500 C 342.018 211.700, 343.647 214.938, 344.475 216.695 C 347.379 222.856, 350.495 225, 356.545 225 C 360.919 225, 362 225.323, 362 226.629 C 362 227.525, 358.175 232.166, 353.500 236.944 L 345 245.630 345 254.128 C 345 262.265, 344.872 262.748, 342 265.500 C 340.139 267.283, 339 269.384, 339 271.034 C 339 272.497, 338.100 274.732, 337 276 C 335.900 277.268, 335 279.496, 335 280.950 C 335 282.693, 333.708 284.856, 331.208 287.297 C 327.811 290.614, 326.869 291, 322.176 291 C 318.851 291, 316.801 290.544, 316.565 289.750 C 315.804 287.201, 314.926 285.401, 312.537 281.500 C 311.189 279.300, 310.067 275.996, 310.043 274.158 C 310.020 272.319, 309.100 269.671, 308 268.273 C 305.561 265.173, 305.449 262.267, 307.672 259.810 C 310.339 256.863, 309.799 249.447, 306.678 246.170 C 305.044 244.455, 304.021 242.099, 303.817 239.583 C 303.543 236.198, 302.955 235.353, 299.500 233.376 C 294.883 230.733, 288.819 230.309, 287 232.500 C 286.309 233.333, 284.129 234, 282.099 234 C 278.939 234, 277.597 233.147, 272.221 227.723 L 266 221.446 266 214.439 L 266 207.432 271.500 202 C 274.525 199.013, 277 196.060, 277 195.439 C 277 194.818, 277.900 193.495, 279 192.500 C 280.100 191.505, 281 190.127, 281 189.439 C 281 188.666, 281.791 188.394, 283.066 188.727 C 284.202 189.025, 286.114 188.813, 287.316 188.258 C 297.833 183.399, 300.551 183.653, 305.903 190 C 309.648 194.441, 310.560 195, 314.060 195 C 316.896 195, 318 194.580, 318 193.500 C 318 192.675, 318.845 192, 319.878 192 C 320.910 192, 322.315 192.675, 323 193.500 C 323.862 194.538, 326.154 195, 330.448 195 C 335.705 195, 336.996 194.633, 338.908 192.598 C 340.270 191.148, 341.033 189.265, 340.832 187.848 C 340.540 185.783, 339.836 185.440, 335 185 C 330.056 184.551, 329.465 184.247, 329.154 182 C 328.538 177.548, 326.174 175.972, 323.064 177.939 C 321.978 178.627, 321.903 179.178, 322.757 180.207 C 323.502 181.105, 323.558 182.066, 322.924 183.034 C 322.105 184.283, 321.742 184.212, 320.481 182.559 C 319.666 181.491, 319 180.126, 319 179.525 C 319 178.924, 316.600 176.061, 313.666 173.164 C 309.187 168.741, 308.140 168.127, 307.136 169.336 C 306.159 170.513, 306.797 171.531, 310.611 174.889 C 313.180 177.150, 314.768 179, 314.141 179 C 313.513 179, 313 179.635, 313 180.412 C 313 181.189, 310.604 179.331, 307.675 176.283 C 302.951 171.367, 302.112 170.869, 300.241 171.871 C 299.081 172.492, 296.752 173, 295.066 173 C 293.128 173, 292 173.507, 292 174.378 C 292 175.135, 291.325 176.315, 290.500 177 C 289.675 177.685, 289 179.020, 289 179.967 C 289 183.732, 283.238 186.180, 278.582 184.393 C 276.084 183.434, 276.416 175.383, 279.011 173.994 C 280.118 173.402, 281.580 172.989, 282.261 173.077 C 286.999 173.688, 289.506 170.344, 286.684 167.178 C 285.526 165.880, 285.461 165.273, 286.398 164.500 C 288.352 162.886, 291.336 161.066, 293.719 160.034 C 294.939 159.506, 296.510 158.157, 297.209 157.037 C 297.909 155.917, 299.246 155, 300.182 155 C 301.117 155, 302.101 154.645, 302.369 154.212 C 302.637 153.778, 304.576 153.554, 306.678 153.714 C 311.968 154.117, 312.088 154.113, 315.829 153.392 C 317.661 153.039, 319.348 152.131, 319.579 151.375 C 321.031 146.628, 320.952 146.715, 322.610 148.091 C 324.006 149.250, 324.155 149.053, 323.848 146.454 C 323.531 143.766, 323.808 143.455, 326.921 143 C 328.802 142.725, 330.527 141.938, 330.754 141.250 C 331.148 140.056, 330.300 139.849, 324 139.599 C 320.755 139.470, 320.167 136.063, 322.956 133.540 C 325.379 131.347, 325.660 128, 323.421 128 C 322.553 128, 319.851 129.991, 317.417 132.425 C 313.391 136.451, 313.085 137.094, 314.025 139.565 C 314.829 141.680, 314.719 142.653, 313.528 143.969 C 312.688 144.897, 312 146.424, 312 147.360 C 312 149.590, 309.059 150.684, 307.872 148.896 C 307.363 148.128, 306.677 146.262, 306.348 144.750 C 305.665 141.609, 304.432 141.299, 301.866 143.621 C 299.485 145.776, 297 144.687, 297 141.488 C 297 139.548, 299.691 136.210, 307.910 127.956 L 318.821 117 327.755 117 C 335.420 117, 336.947 117.284, 338.500 119 C 339.495 120.100, 341.295 121, 342.500 121 C 343.705 121, 345.514 121.911, 346.521 123.024 C 349.264 126.055, 347.374 127.196, 341.445 126.089 C 335.981 125.068, 335.267 125.240, 336.910 127.184 C 337.521 127.908, 338.950 129.738, 340.083 131.250 C 342.349 134.271, 344 134.812, 344 132.531 C 344 131.698, 344.593 131.290, 345.371 131.589 C 346.125 131.878, 347.013 131.407, 347.345 130.542 C 347.677 129.678, 349.136 128.519, 350.587 127.967 C 352.705 127.162, 353.131 126.466, 352.744 124.442 C 352.439 122.846, 352.673 122.065, 353.381 122.314 C 353.996 122.530, 354.368 123.448, 354.206 124.354 C 353.765 126.825, 359.234 126.504, 361.571 123.921 C 363.157 122.169, 364.400 121.893, 369.476 122.164 C 374.702 122.444, 375.482 122.256, 375.361 120.743 C 375.252 119.370, 376.021 119, 378.989 119 C 381.117 119, 383.297 119.653, 384 120.500 C 385.171 121.911, 388 122.609, 388 121.486 C 388 121.204, 387.520 120.191, 386.932 119.236 C 385.415 116.768, 388.414 109.741, 390.791 110.196 C 392.110 110.448, 392.645 112.002, 393.137 117.011 C 393.525 120.955, 393.371 124, 392.745 124.774 C 392.178 125.475, 392.048 126.375, 392.455 126.774 C 392.862 127.173, 394.513 125.928, 396.124 124.006 C 398.665 120.975, 398.851 120.364, 397.527 119.396 C 395.839 118.162, 395.414 113, 397 113 C 397.550 113, 398 112.325, 398 111.500 C 398 109.189, 396.307 109.725, 395.630 112.250 C 394.724 115.631, 394.880 120, 395.906 120 C 396.405 120, 396.543 121.013, 396.213 122.250 C 395.614 124.494, 395.611 124.494, 394.906 122 C 394.517 120.625, 394.155 117.418, 394.100 114.872 C 393.994 109.961, 392.143 107.348, 389.490 108.365 C 388.646 108.690, 387.707 109.752, 387.404 110.727 C 387.102 111.702, 386.437 113.281, 385.927 114.236 C 385.417 115.191, 385.001 116.541, 385.001 117.236 C 385.002 118.147, 383.425 118.402, 379.358 118.149 C 374.041 117.819, 373.746 117.920, 374.263 119.899 C 374.810 121.989, 373.625 122.821, 372.560 121.096 C 371.492 119.370, 363.027 120.626, 360.644 122.864 C 358.045 125.307, 354.767 125.770, 355.609 123.577 C 356.176 122.100, 352.742 119.591, 351.650 120.684 C 351.312 121.021, 351.290 122.306, 351.599 123.539 C 352.283 126.265, 350.248 127.864, 349.341 125.313 C 348.245 122.232, 345.791 120, 343.500 120 C 342.295 120, 340.495 119.100, 339.500 118 C 337.950 116.287, 336.420 116, 328.831 116 C 323.615 116, 319.053 116.513, 317.736 117.248 C 314.147 119.250, 306.892 126.305, 305.947 128.713 C 305.469 129.930, 303.269 132.068, 301.058 133.464 C 295.662 136.870, 294.220 142.850, 298.191 145.351 C 299.475 146.159, 300.338 146.004, 301.770 144.708 C 304.014 142.677, 305 142.542, 305 144.263 C 305 144.957, 303.988 145.975, 302.750 146.524 C 300.990 147.305, 300.555 148.227, 300.754 150.761 C 300.955 153.328, 300.627 154, 299.173 154 C 298.164 154, 296.736 155.125, 296 156.500 C 294.414 159.463, 291 159.888, 291 157.122 C 291 156.090, 290.325 154.685, 289.500 154 C 288.675 153.315, 288 152.154, 288 151.419 C 288 150.684, 287.212 148.486, 286.250 146.536 C 285.006 144.015, 283.922 143.063, 282.500 143.245 C 280.872 143.453, 280.522 144.205, 280.618 147.293 C 280.692 149.681, 281.400 151.572, 282.527 152.396 C 284.197 153.617, 284.208 153.865, 282.688 156.035 C 280.408 159.291, 282.059 161.027, 286.717 160.271 C 289.323 159.848, 290.112 160.010, 289.586 160.860 C 289.188 161.505, 288.440 161.772, 287.924 161.453 C 287.408 161.134, 286.716 161.577, 286.386 162.437 C 286.056 163.296, 284.822 164.024, 283.643 164.052 L 281.500 164.105 283.750 165.674 C 285.013 166.555, 286 168.288, 286 169.622 C 286 171.709, 285.535 172, 282.200 172 C 277.247 172, 276 173.407, 276 179 C 276 184.674, 277.239 186, 282.545 186 C 287.029 186, 289.975 183.805, 290.033 180.421 C 290.093 176.958, 293.276 174.371, 298.331 173.678 C 302.841 173.060, 303.336 173.230, 307.056 176.672 C 311.476 180.762, 311.928 182, 309 182 C 307.900 182, 307 182.498, 307 183.107 C 307 183.716, 307.698 183.946, 308.552 183.618 C 309.442 183.277, 309.843 183.445, 309.493 184.011 C 309.157 184.555, 309.359 185, 309.941 185 C 310.523 185, 311.001 184.662, 311.003 184.250 C 311.004 183.838, 312.308 182.628, 313.899 181.562 C 315.694 180.359, 316.578 179.063, 316.226 178.148 C 315.860 177.193, 316.073 176.927, 316.830 177.395 C 317.474 177.793, 318 178.922, 318 179.904 C 318 181.810, 320.956 185, 322.722 185 C 324.295 185, 325.190 181.934, 324.026 180.531 C 322.895 179.169, 323.653 178, 325.667 178 C 326.400 178, 327.014 179.012, 327.032 180.250 C 327.087 184.140, 329.256 185.852, 334.556 186.188 C 340.114 186.540, 341.515 188.668, 338.433 192.074 C 336.184 194.559, 324.965 194.868, 323 192.500 C 322.315 191.675, 320.685 191, 319.378 191 C 317.931 191, 317 191.587, 317 192.500 C 317 193.493, 316.007 194, 314.060 194 C 311.760 194, 310.200 192.911, 306.903 189 C 302.962 184.326, 302.385 184, 298.055 184 C 295.362 184, 291.764 184.852, 289.461 186.034 C 287.283 187.152, 284.587 187.844, 283.471 187.570 C 282.019 187.214, 280.669 188.042, 278.721 190.483 C 277.224 192.359, 276 194.401, 276 195.021 C 276 195.641, 273.525 198.743, 270.500 201.915 L 265 207.681 265 214.617 L 265 221.554 271.775 228.277 C 277.884 234.339, 278.941 234.997, 282.525 234.968 C 284.711 234.951, 287.374 234.276, 288.441 233.468 C 289.509 232.661, 291.464 232, 292.787 232 C 294.801 232, 296.367 232.639, 301.877 235.710 C 302.084 235.825, 302.465 237.850, 302.725 240.210 C 303.018 242.876, 304.105 245.467, 305.598 247.055 C 308.392 250.026, 308.834 256.314, 306.468 259.441 C 304.399 262.177, 304.645 266.369, 307 268.500 C 308.469 269.830, 309 271.580, 309 275.096 C 309 277.728, 309.478 280.177, 310.062 280.538 C 310.646 280.899, 311.545 282.163, 312.059 283.347 C 312.574 284.531, 313.414 286.175, 313.925 287 C 314.437 287.825, 315.099 289.288, 315.396 290.250 C 315.833 291.662, 317.095 292, 321.932 292 C 327.690 292, 328.087 291.831, 331.939 287.750 C 334.463 285.076, 335.959 282.538, 335.975 280.905 C 335.989 279.478, 336.900 277.495, 338 276.500 C 339.100 275.505, 340 273.505, 340 272.057 C 340 270.587, 341.306 267.896, 342.959 265.962 C 345.694 262.763, 345.922 261.892, 345.959 254.478 L 346 246.456 354.536 237.978 C 361.311 231.248, 363.012 228.985, 362.786 227 C 362.525 224.715, 362.027 224.474, 357 224.192 C 352.680 223.950, 350.910 223.320, 348.750 221.255 C 347.238 219.809, 346 217.880, 346 216.968 C 346 216.056, 345.100 214.495, 344 213.500 C 342.900 212.505, 342 211.079, 342 210.331 C 342 208.946, 341.610 208.026, 338.545 202.181 C 337.588 200.355, 336.983 198.684, 337.201 198.466 C 337.881 197.786, 343 203.012, 343 204.385 C 343 205.103, 343.883 206.489, 344.962 207.465 C 347.679 209.924, 351 216.560, 351 219.531 C 351 221.661, 351.456 222, 354.326 222 C 356.580 222, 358.408 221.195, 360 219.500 C 361.345 218.068, 363.467 217, 364.966 217 C 366.729 217, 368.961 215.596, 371.804 212.699 L 376.025 208.398 373.072 205.569 C 371.104 203.683, 369.543 202.961, 368.392 203.403 C 367.215 203.855, 365.600 203.035, 363.332 200.837 C 358.888 196.530, 359.052 194.961, 363.535 198.896 C 365.479 200.603, 367.616 202.018, 368.285 202.039 C 368.953 202.061, 372.875 202.315, 377 202.604 C 383.982 203.093, 384.715 203.367, 387.606 206.565 C 389.314 208.454, 391.227 210, 391.856 210 C 392.515 210, 393 211.621, 393 213.826 C 393 216.613, 393.678 218.289, 395.500 220 C 397.195 221.592, 398 223.420, 398 225.674 C 398 228.300, 398.409 229, 399.941 229 C 401.009 229, 402.227 228.442, 402.648 227.760 C 403.166 226.923, 403.606 227.330, 404.002 229.010 C 404.684 231.896, 407.308 232.356, 407.823 229.679 C 408.039 228.559, 407.466 227.673, 406.334 227.377 C 404.831 226.984, 404.557 226.101, 404.839 222.553 C 405.122 218.996, 406.051 217.273, 409.975 213.027 C 414.238 208.415, 415.120 207.899, 417.974 208.349 C 422.258 209.024, 425 211.680, 425 215.155 C 425 218.151, 426.709 218.891, 428.800 216.800 C 429.733 215.867, 430 216.860, 430 221.269 C 430 227.689, 432.281 232.979, 436.996 237.497 C 440.174 240.541, 442.232 240.202, 440.212 236.968 C 439.545 235.901, 439 234.430, 439 233.701 C 439 232.971, 437.650 231.081, 436 229.500 C 433.923 227.510, 433.008 225.683, 433.027 223.563 L 433.054 220.500 436.612 224.328 C 440.115 228.097, 440.203 228.128, 442.319 226.328 C 447.731 221.723, 448.196 219.472, 444.458 215.961 C 441.626 213.300, 441.516 209.708, 444.250 209.187 C 445.550 208.939, 446 209.515, 446 211.427 C 446 212.960, 446.563 214, 447.393 214 C 448.956 214, 450.307 211.306, 449.444 209.910 C 448.868 208.977, 450.186 208.638, 453.211 208.941 C 454.152 209.035, 456.965 207.230, 459.461 204.929 C 463.722 201.001, 464 200.429, 464 195.573 C 464 192.728, 463.471 189.871, 462.824 189.224 C 461.922 188.322, 462.038 187.615, 463.324 186.195 C 465.505 183.785, 465.440 183, 463.059 183 C 460.146 183, 459.786 181.497, 462.193 179.384 C 464.023 177.777, 464.250 177.746, 463.733 179.167 C 463.032 181.095, 465.047 182.207, 467.025 180.985 C 468.525 180.058, 471 183.874, 471 187.114 C 471 189.260, 473.922 189.678, 475.800 187.800 C 477.465 186.135, 477.299 183.987, 475.336 181.818 C 473.774 180.093, 473.814 179.827, 475.981 177.520 C 477.251 176.168, 478.721 175.327, 479.246 175.652 C 479.772 175.977, 483.081 173.388, 486.601 169.900 L 493 163.558 493 167.656 C 493 170.080, 492.387 172.264, 491.500 173 C 489.687 174.504, 489.495 177.352, 491.250 176.708 C 491.938 176.456, 492.402 175.787, 492.282 175.221 C 491.911 173.471, 494.384 172.200, 496.500 173.053 C 498.232 173.752, 498.124 173.869, 495.691 173.930 C 494.146 173.968, 493.123 174.390, 493.417 174.866 C 494.245 176.205, 499 174.942, 499 173.383 C 499 172.623, 498.380 172, 497.622 172 C 495.433 172, 493.575 169.218, 494.784 167.750 C 496.554 165.600, 497.378 157.160, 495.982 155.479 C 495.095 154.410, 494.373 154.275, 493.484 155.013 C 492.587 155.758, 492.068 155.620, 491.648 154.526 C 491.326 153.686, 490.429 153, 489.654 153 C 488.879 153, 487.751 152.405, 487.148 151.678 C 486.307 150.665, 486.965 149.463, 489.971 146.528 L 493.892 142.700 503.446 143.270 C 510.783 143.707, 513 143.546, 513 142.575 C 513 141.879, 513.925 140.473, 515.056 139.449 C 516.797 137.874, 517.425 137.784, 519.152 138.863 C 520.866 139.933, 521.496 139.861, 523.096 138.413 C 527.221 134.680, 524.676 138.299, 519.005 144.230 C 512.641 150.886, 511.227 155.283, 514.561 158.050 C 516.914 160.003, 522.855 153.740, 523.665 148.453 C 524.547 142.693, 526.440 141, 532 141 C 535.420 141, 537.180 140.458, 538.500 139 C 539.495 137.900, 541.535 137, 543.033 137 C 546.310 137, 548.255 135.031, 546.993 132.989 C 546.406 132.039, 546.632 130.959, 547.655 129.829 C 549.283 128.030, 550.998 128.495, 555.224 131.882 C 556.705 133.068, 557.313 133.025, 559.528 131.574 C 564.212 128.505, 563.890 125.027, 558.899 124.779 C 557.580 124.714, 555.375 123.679, 554 122.480 C 548.332 117.537, 537.053 115.310, 535.112 118.750 C 534.393 120.024, 533.822 120.201, 533.014 119.401 C 532.360 118.755, 529.848 118.500, 526.906 118.783 C 522.639 119.193, 521.539 118.915, 519.374 116.882 C 517.551 115.169, 515.610 114.474, 512.461 114.406 C 510.052 114.355, 507.501 113.849, 506.791 113.282 C 505.440 112.203, 501.333 111.232, 494.371 110.344 C 490.961 109.910, 489.986 110.182, 488.779 111.906 C 487.547 113.664, 486.470 113.943, 481.949 113.674 C 477.202 113.391, 476.395 113.016, 474.967 110.427 C 473.048 106.949, 469.233 106.146, 465.681 108.474 C 463.863 109.664, 462.644 109.821, 460.873 109.093 C 459.568 108.556, 455.800 107.796, 452.500 107.405 C 448.129 106.887, 447.153 106.526, 448.905 106.074 C 451.825 105.322, 453.542 102.855, 452.691 100.636 C 452.241 99.464, 450.813 99, 447.654 99 C 444.955 99, 442.762 98.418, 442 97.500 C 440.586 95.796, 436.435 95.487, 435.491 97.015 M 114.640 98.630 C 111.238 100.473, 112.237 102.084, 116.863 102.215 C 118.588 102.264, 120 102.686, 120 103.152 C 120 103.618, 120.862 104, 121.917 104 C 122.971 104, 124.016 104.547, 124.239 105.216 C 124.647 106.441, 129.802 106.531, 135.250 105.408 C 138.533 104.731, 139.218 101, 136.059 101 C 134.991 101, 133.840 100.550, 133.500 100 C 132.545 98.455, 130 98.819, 130 100.500 C 130 101.325, 129.605 102, 129.122 102 C 128.640 102, 127.685 101.325, 127 100.500 C 126.315 99.675, 125.135 99, 124.378 99 C 123.620 99, 123 98.550, 123 98 C 123 96.490, 117.877 96.876, 114.640 98.630 M 116.667 98.667 C 115.550 99.783, 115.920 101, 117.378 101 C 118.135 101, 119.315 100.325, 120 99.500 C 121.034 98.254, 120.914 98, 119.289 98 C 118.213 98, 117.033 98.300, 116.667 98.667 M 379.362 99.177 C 373.742 100.205, 367.054 105.062, 364.525 109.951 C 363.285 112.349, 363.296 112.977, 364.608 114.851 C 366.044 116.901, 369.914 117.752, 371.336 116.331 C 371.703 115.963, 371.248 114.827, 370.324 113.806 C 368.732 112.046, 368.847 111.741, 372.525 107.975 C 374.764 105.682, 377.353 104, 378.644 104 C 379.875 104, 381.160 103.550, 381.500 103 C 381.840 102.450, 382.922 102, 383.904 102 C 384.886 102, 386.505 101.100, 387.500 100 C 389.263 98.052, 389.248 98.003, 386.905 98.119 C 385.582 98.184, 382.188 98.660, 379.362 99.177 M 154.302 99.721 C 156.141 99.998, 157.427 100.993, 158.045 102.617 C 158.931 104.947, 159.365 105.074, 165.502 104.796 C 169.086 104.633, 172.003 104.050, 171.984 103.500 C 171.948 102.441, 168.519 102.452, 163.423 103.527 C 160.839 104.072, 160.074 103.762, 158.650 101.588 C 157.449 99.756, 156.157 99.044, 154.227 99.150 L 151.500 99.300 154.302 99.721 M 383 100 C 381.625 100.440, 379.128 100.845, 377.451 100.900 C 374.103 101.010, 366.678 107.288, 365.497 111.008 C 364.687 113.562, 366.533 116, 369.277 116 C 371.183 116, 371.207 115.886, 369.655 114.171 C 368.745 113.165, 368 111.907, 368 111.374 C 368 109.873, 375.406 103.002, 377.042 102.985 C 378.862 102.966, 385.725 100.609, 386.648 99.685 C 387.490 98.843, 386.289 98.947, 383 100 M 122 101.500 C 120.960 102.753, 121.104 103, 122.878 103 C 124.045 103, 125 103.450, 125 104 C 125 105.095, 131.171 105.329, 134.750 104.370 C 137.436 103.650, 137.750 102, 135.200 102 C 134.210 102, 132.769 101.438, 131.998 100.750 C 130.806 99.687, 130.794 99.761, 131.921 101.250 C 133.110 102.822, 132.940 103, 130.245 103 C 128.595 103, 126.685 102.325, 126 101.500 C 125.315 100.675, 124.415 100, 124 100 C 123.585 100, 122.685 100.675, 122 101.500 M 144.188 101.739 C 144.690 104.345, 148 104.636, 148 102.073 C 148 100.642, 147.358 100, 145.927 100 C 144.496 100, 143.957 100.539, 144.188 101.739 M 486.625 101.798 C 485.388 103.799, 488.029 105.389, 492.182 105.146 C 497.111 104.857, 499.285 103.423, 496.992 101.974 C 495.173 100.824, 487.309 100.690, 486.625 101.798 M 488 103.100 C 488 103.595, 490.137 103.993, 492.750 103.985 C 495.895 103.975, 497.028 103.670, 496.103 103.085 C 494.275 101.928, 488 101.940, 488 103.100 M 499.694 102.639 C 498.484 103.850, 500.124 105, 503.059 105 C 506.529 105, 506.968 103.493, 503.750 102.630 C 500.879 101.861, 500.471 101.862, 499.694 102.639 M 151.500 104 C 151.840 104.550, 152.541 105, 153.059 105 C 153.577 105, 154 104.550, 154 104 C 154 103.450, 153.298 103, 152.441 103 C 151.584 103, 151.160 103.450, 151.500 104 M 109.430 108.507 C 108.092 111.326, 108.009 112.306, 109.005 113.507 C 110.826 115.700, 113.816 115.332, 117.182 112.500 C 120.741 109.506, 122.487 109.247, 120.789 111.966 C 119.730 113.662, 119.970 114.367, 122.531 117.085 C 124.960 119.665, 125.137 120.132, 123.500 119.659 C 122.400 119.341, 119.138 118.950, 116.250 118.790 C 113.363 118.631, 111 118.259, 111 117.965 C 111 116.586, 99.372 117.070, 96.187 118.581 C 93.601 119.809, 92.197 119.955, 90.487 119.176 C 89.240 118.608, 84.907 117.840, 80.860 117.469 C 76.812 117.099, 71.514 116.147, 69.087 115.354 C 63.624 113.570, 59.519 114.364, 55.347 118.012 C 53.613 119.528, 51.588 121.020, 50.847 121.326 C 49.804 121.758, 49.895 122.134, 51.250 122.992 C 53.409 124.358, 53.528 126, 51.469 126 C 49.375 126, 48.504 128.697, 50.011 130.513 C 50.689 131.331, 52.566 132, 54.181 132 C 55.885 132, 56.858 132.420, 56.500 133 C 56.160 133.550, 55.078 134, 54.096 134 C 53.114 134, 51.503 134.892, 50.517 135.981 C 49.062 137.589, 48.958 138.245, 49.967 139.460 C 51.774 141.638, 56.912 144, 59.841 144 L 62.374 144 59.500 147 C 57.919 148.650, 55.810 150, 54.813 150 C 52.895 150, 52.362 151.488, 53.933 152.458 C 55.160 153.217, 65.680 148.383, 66.334 146.760 C 66.643 145.995, 66.873 146.187, 66.921 147.250 C 67.010 149.213, 69.499 149.619, 70.594 147.848 C 70.985 147.215, 70.562 146.153, 69.653 145.488 C 67.563 143.960, 67.500 142.594, 69.555 143.383 C 70.410 143.711, 72.440 142.995, 74.066 141.793 C 76.681 139.860, 77.406 139.745, 80.333 140.803 C 82.153 141.461, 84.432 142, 85.397 142 C 87.372 142, 106 158.767, 106 160.545 C 106 161.175, 106.856 162.465, 107.903 163.412 C 109.439 164.803, 109.873 166.842, 110.153 173.996 C 110.523 183.457, 112.219 187.392, 116.828 189.487 C 118.023 190.030, 119 190.964, 119 191.563 C 119 192.162, 120.138 193.721, 121.529 195.028 C 122.921 196.335, 123.856 197.934, 123.607 198.581 C 123.359 199.229, 124.604 201.163, 126.375 202.879 C 129.954 206.348, 133.294 207.111, 132.376 204.250 C 132.011 203.113, 132.532 203.376, 133.862 205 C 134.989 206.375, 136.043 208.366, 136.205 209.424 C 136.691 212.596, 147.694 218.366, 151.456 217.422 C 153.835 216.825, 158.637 219.542, 164.938 225.051 C 169.057 228.651, 172.624 229.716, 175.192 228.112 C 176.231 227.463, 177.490 227.185, 177.991 227.494 C 178.491 227.803, 179.358 227.200, 179.918 226.153 C 180.970 224.188, 184.418 222.751, 185.495 223.829 C 186.133 224.466, 186.797 224.547, 193.673 224.829 C 196.718 224.954, 199.062 225.928, 202.341 228.430 C 204.813 230.317, 208.289 232.005, 210.067 232.180 C 211.914 232.363, 213.663 233.250, 214.149 234.250 C 214.617 235.212, 215.383 236.787, 215.851 237.750 C 216.319 238.712, 217.838 239.637, 219.228 239.805 C 220.617 239.972, 222.788 241.210, 224.051 242.555 C 225.389 243.979, 227.477 245, 229.052 245 C 230.539 245, 232.315 245.675, 233 246.500 C 233.685 247.325, 235.090 248, 236.122 248 C 238.808 248, 238.518 251.455, 235.500 255.411 C 234.125 257.214, 233 259.815, 233 261.191 C 233 266.432, 227.541 273.279, 221.727 275.329 C 220.752 275.673, 219.692 276.752, 219.370 277.727 C 216.901 285.218, 213.786 289.328, 209.250 291.081 C 208.012 291.559, 207 292.772, 207 293.775 C 207 296.263, 205.067 298, 202.300 298 C 200.901 298, 200 298.600, 200 299.532 C 200 300.375, 199.034 301.422, 197.853 301.859 C 196.493 302.362, 195.598 303.671, 195.410 305.435 C 195.247 306.965, 194.413 308.991, 193.557 309.937 C 191.770 311.912, 191.510 314, 193.051 314 C 193.629 314, 192.954 315.505, 191.551 317.344 C 188.344 321.548, 188.341 323.336, 191.535 325.849 C 194.029 327.811, 194.036 327.854, 191.963 328.512 C 190.640 328.932, 189.204 328.589, 188.100 327.590 C 187.133 326.716, 185.885 326, 185.326 326 C 183.246 326, 181 322.227, 181 318.730 C 181 316.744, 181.360 314.896, 181.800 314.624 C 182.240 314.352, 182.722 310.163, 182.871 305.315 C 183.093 298.075, 183.504 296.112, 185.170 294.330 C 186.916 292.461, 187.272 290.402, 187.723 279.545 C 188.195 268.183, 188.061 266.723, 186.373 264.850 C 185.343 263.706, 183.535 262.401, 182.356 261.950 C 180.292 261.161, 177 255.967, 177 253.501 C 177 252.846, 176.144 251.535, 175.098 250.589 C 172.317 248.072, 172.886 242.113, 176.293 238.063 C 179.404 234.366, 179.774 230.831, 177.250 228.921 C 175.761 227.794, 175.687 227.806, 176.750 228.998 C 178.706 231.192, 178.238 233.652, 175.188 237.215 C 171.570 241.441, 170.976 248.763, 174.027 251.525 C 175.112 252.507, 176 253.846, 176 254.501 C 176 256.967, 179.292 262.161, 181.356 262.950 C 182.535 263.401, 184.352 264.716, 185.392 265.871 C 187.122 267.791, 187.224 269.029, 186.573 280.236 C 185.961 290.762, 185.560 292.821, 183.742 294.764 C 182.067 296.555, 181.588 298.437, 181.453 303.764 C 181.359 307.469, 180.929 313.103, 180.499 316.285 C 179.789 321.536, 179.930 322.297, 182.033 324.535 C 183.306 325.891, 184.959 327, 185.706 327 C 186.452 327, 187.322 327.675, 187.638 328.500 C 188.342 330.334, 191.994 330.456, 194.360 328.726 C 195.964 327.553, 195.861 327.273, 193.051 325.196 C 189.323 322.440, 189.293 321.794, 192.680 317.353 C 194.775 314.606, 195.069 313.661, 194.030 313.018 C 192.975 312.367, 193.145 311.632, 194.850 309.463 C 196.033 307.960, 197 306.136, 197 305.411 C 197 303.490, 201.795 299, 203.845 299 C 206.108 299, 208 297.088, 208 294.800 C 208 293.810, 208.584 293, 209.297 293 C 212.011 293, 218.490 284.683, 220.358 278.802 C 220.654 277.869, 222.383 276.352, 224.199 275.432 C 226.014 274.512, 228.325 273.035, 229.333 272.150 C 231.381 270.351, 234 264.673, 234 262.032 C 234 260.011, 236.708 254.298, 238.063 253.461 C 238.578 253.142, 239 251.559, 239 249.941 C 239 247.731, 238.534 247, 237.122 247 C 236.090 247, 234.685 246.325, 234 245.500 C 233.315 244.675, 231.495 244, 229.954 244 C 228.414 244, 225.881 242.930, 224.327 241.621 C 222.772 240.313, 220.648 239.076, 219.607 238.871 C 218.566 238.667, 217.329 237.712, 216.857 236.750 C 216.386 235.787, 215.617 234.212, 215.149 233.250 C 214.630 232.183, 212.915 231.381, 210.755 231.196 C 208.806 231.029, 206.420 230.016, 205.451 228.946 C 204.483 227.876, 203.140 227, 202.467 227 C 201.795 227, 200.685 226.325, 200 225.500 C 199.257 224.605, 197.071 224, 194.578 224 C 192.280 224, 189.860 223.460, 189.200 222.800 C 188.540 222.140, 188 221.970, 188 222.422 C 188 222.875, 187.365 222.718, 186.589 222.074 C 185.624 221.273, 184.973 221.235, 184.530 221.951 C 184.174 222.528, 183.057 223, 182.048 223 C 181.039 223, 179.937 223.722, 179.599 224.604 C 179.219 225.594, 178.359 225.968, 177.351 225.581 C 176.453 225.237, 174.677 225.637, 173.405 226.470 C 171.292 227.855, 170.784 227.805, 167.546 225.894 C 165.596 224.744, 164 223.226, 164 222.523 C 164 221.819, 162.537 220.664, 160.750 219.957 C 158.963 219.249, 156.749 218.033, 155.831 217.253 C 154.912 216.474, 153.112 215.942, 151.831 216.072 C 150.549 216.202, 148.150 215.943, 146.500 215.496 C 142.811 214.496, 136.825 210.093, 137.553 208.914 C 138.137 207.969, 130.284 199, 128.873 199 C 127.448 199, 127.876 201.193, 129.734 203.421 C 130.688 204.565, 130.013 204.178, 128.234 202.563 C 126.455 200.948, 125 198.888, 125 197.987 C 125 197.086, 123.875 195.292, 122.500 194 C 121.125 192.708, 120 191.104, 120 190.434 C 120 189.765, 118.987 188.942, 117.750 188.607 C 113.328 187.409, 111.608 183.353, 111.158 173.064 L 110.743 163.570 99.172 152.285 C 90.127 143.463, 87.002 141, 84.859 141 C 83.352 141, 81.840 140.550, 81.500 140 C 80.553 138.468, 75.401 138.812, 74 140.500 C 73.315 141.325, 71.910 142, 70.878 142 C 69.845 142, 67.200 143.800, 65 146 C 60.814 150.186, 57.048 151.707, 60.826 147.686 C 63.779 144.542, 63.557 143, 60.154 143 C 57.188 143, 51.482 140.589, 50.434 138.893 C 49.490 137.366, 51.867 135.151, 54.815 134.809 C 56.358 134.630, 57.618 133.789, 57.802 132.814 C 58.048 131.518, 57.259 131.055, 54.388 130.814 C 50.244 130.465, 48.611 128.176, 51.895 127.317 C 54.120 126.735, 54.631 125.034, 53.055 123.450 C 52.461 122.852, 53.621 121.233, 56.187 119.083 C 59.445 116.352, 61.128 115.667, 64.578 115.667 C 66.951 115.667, 69.480 116.135, 70.197 116.707 C 70.914 117.279, 75.277 118.066, 79.894 118.455 C 84.510 118.844, 89.113 119.678, 90.122 120.309 C 91.534 121.190, 92.713 121.126, 95.229 120.031 C 98.759 118.495, 109.134 117.955, 110.076 119.258 C 110.393 119.696, 113.456 120.234, 116.884 120.453 C 120.311 120.672, 123.655 121.299, 124.316 121.847 C 124.976 122.395, 127.435 123.504, 129.781 124.313 C 133.816 125.703, 134.104 125.674, 135.116 123.784 C 135.898 122.322, 136.483 122.083, 137.293 122.893 C 138.674 124.274, 145.495 124.340, 148.005 122.997 C 149.278 122.316, 150.087 122.332, 150.528 123.046 C 150.974 123.767, 151.622 123.729, 152.589 122.926 C 154.439 121.391, 154.370 120.066, 152.324 117.805 C 151.114 116.469, 150.951 115.649, 151.736 114.864 C 153.143 113.457, 154.884 114.564, 156.037 117.597 C 156.539 118.919, 157.599 120, 158.392 120 C 159.185 120, 160.722 121.220, 161.809 122.712 C 163.509 125.046, 164.008 125.238, 165.392 124.090 C 166.276 123.356, 167 121.877, 167 120.804 C 167 117.762, 170.229 119.017, 170.565 122.190 C 170.863 124.996, 168.798 127.611, 167.109 126.567 C 166.571 126.235, 164.923 127.546, 163.446 129.481 C 161.970 131.417, 160.278 133, 159.686 133 C 157.654 133, 153 138.375, 153 140.722 C 153 144.002, 155.849 148, 158.186 148 C 159.262 148, 160.818 148.675, 161.643 149.500 C 162.468 150.325, 164.686 151, 166.571 151 C 169.673 151, 170 151.272, 170 153.845 C 170 155.410, 170.827 157.438, 171.838 158.353 C 173.557 159.909, 173.790 159.889, 175.463 158.041 C 176.473 156.924, 177.027 155.212, 176.737 154.102 C 176.439 152.962, 177.016 151.287, 178.112 150.111 C 180.338 147.721, 180.467 146.632, 178.696 145.163 C 177.904 144.505, 177.554 142.691, 177.806 140.540 C 178.168 137.439, 178.562 137, 180.987 137 C 182.509 137, 184.315 137.675, 185 138.500 C 185.685 139.325, 186.865 140, 187.622 140 C 188.380 140, 189 140.845, 189 141.878 C 189 145.840, 194.034 146.961, 195.435 143.310 C 195.936 142.003, 196.268 141.978, 197.667 143.137 C 198.570 143.887, 199.932 145.987, 200.691 147.805 C 201.451 149.623, 203.632 152.030, 205.537 153.154 C 207.441 154.278, 209 155.594, 209 156.078 C 209 157.401, 201.430 161, 198.648 161 C 196.865 161, 196.043 161.692, 195.565 163.596 C 194.805 166.625, 196.394 169, 199.181 169 C 200.247 169, 200.873 169.396, 200.574 169.881 C 199.727 171.250, 195.374 171.789, 193.523 170.753 C 191.660 169.710, 188 172.296, 188 174.655 C 188 175.430, 186.919 176, 185.449 176 C 183.458 176, 182.539 176.823, 181.265 179.750 C 180.367 181.813, 179.731 184.049, 179.853 184.719 C 179.974 185.390, 178.219 187.614, 175.952 189.662 C 172.025 193.210, 171.861 193.589, 172.477 197.693 C 173.261 202.926, 172.533 203.212, 170.544 198.450 L 169.060 194.900 161.058 195.270 C 152.605 195.660, 149 197.402, 149 201.096 C 149 202.078, 148.550 203.160, 148 203.500 C 146.005 204.733, 147.076 207.860, 150.535 210.896 C 152.479 212.603, 154.250 214, 154.470 214 C 156.404 214, 160 211.740, 160 210.525 C 160 209.686, 160.724 209, 161.608 209 C 163.196 209, 163.134 210.881, 161.397 215.407 C 160.897 216.710, 161.558 217, 165.024 217 L 169.262 217 168.663 220.687 C 168.078 224.292, 169.186 227, 171.245 227 C 171.795 227, 171.627 226.255, 170.872 225.345 C 170.118 224.434, 169.500 222.072, 169.500 220.095 C 169.500 216.770, 169.256 216.476, 166.248 216.187 C 163.059 215.879, 163.009 215.798, 163.626 211.937 C 164.200 208.347, 164.060 208, 162.034 208 C 160.654 208, 159.615 208.757, 159.290 210 C 158.903 211.479, 157.926 212, 155.538 212 C 150.930 212, 148.564 209.076, 149.333 204.332 C 150.306 198.342, 152.740 196.710, 161.333 196.286 C 168.743 195.921, 168.765 195.928, 169.461 198.700 C 170.121 201.332, 171.560 202.951, 173.268 202.985 C 173.691 202.993, 173.957 200.752, 173.860 198.004 C 173.668 192.590, 175.457 189.552, 179.817 187.884 C 181.524 187.232, 181.971 186.485, 181.516 185.049 C 180.650 182.321, 183.608 177, 185.990 177 C 187.057 177, 188.463 175.987, 189.115 174.750 C 190.669 171.798, 192.168 170.894, 193.573 172.061 C 195.210 173.419, 200.758 172.073, 201.501 170.138 C 202.413 167.761, 202.170 167.466, 199.582 167.805 C 198.184 167.988, 197.018 167.489, 196.659 166.555 C 195.645 163.910, 197.065 162, 200.048 162 C 201.607 162, 203.160 161.550, 203.500 161 C 203.840 160.450, 204.845 160, 205.733 160 C 207.059 160, 206.959 160.414, 205.174 162.314 C 202.384 165.285, 202.435 166, 205.441 166 C 206.784 166, 208.160 166.450, 208.500 167 C 209.269 168.244, 211.043 168.258, 212.974 167.037 C 214.223 166.247, 214.109 165.745, 212.224 163.738 C 211.001 162.436, 210 160.789, 210 160.079 C 210 159.275, 209.360 159.032, 208.306 159.436 C 206.872 159.986, 206.908 159.759, 208.544 157.951 C 210.473 155.820, 210.469 155.810, 206.222 152.158 C 203.883 150.146, 201.976 148.045, 201.985 147.490 C 202.003 146.316, 197.264 141, 196.200 141 C 195.805 141, 194.898 141.934, 194.185 143.076 C 193.143 144.744, 192.604 144.916, 191.444 143.954 C 190.650 143.294, 189.988 142.023, 189.974 141.128 C 189.945 139.300, 184.033 136.279, 179.566 135.809 C 176.731 135.510, 176.627 135.650, 176.469 140 C 176.376 142.566, 176.888 145.182, 177.661 146.088 C 178.818 147.444, 178.730 147.934, 177.056 149.450 C 175.655 150.717, 175.253 152.015, 175.648 153.991 C 176.254 157.020, 175.064 158.346, 172.590 157.396 C 171.569 157.004, 171 155.572, 171 153.393 C 171 150.119, 170.864 150, 167.122 150 C 164.896 150, 162.715 149.361, 162 148.500 C 161.315 147.675, 159.798 146.996, 158.628 146.992 C 156.474 146.984, 154 143.232, 154 139.975 C 154 137.972, 157.698 134.474, 160.815 133.527 C 162.088 133.140, 163.522 131.851, 164.001 130.662 C 164.768 128.761, 164.881 128.892, 164.937 131.750 C 164.999 134.952, 166.257 136.012, 167.536 133.941 C 167.920 133.320, 169.441 133.158, 171.220 133.548 C 175.377 134.461, 174.059 132.583, 168.693 129.944 C 166.387 128.810, 165.481 128.084, 166.681 128.329 C 169.365 128.880, 173.545 124.945, 171.960 123.360 C 170.602 122.002, 171.540 119.769, 174.154 118.136 C 176.028 116.966, 176.565 117.111, 178.862 119.407 C 181.433 121.979, 181.436 122, 179.227 122 C 177.914 122, 177 122.616, 177 123.500 C 177 124.433, 177.944 125, 179.500 125 C 180.875 125, 182 124.592, 182 124.094 C 182 123.595, 180.988 123.379, 179.750 123.614 C 177.678 124.007, 177.658 123.970, 179.500 123.144 C 180.687 122.612, 181.964 122.617, 182.641 123.155 C 184.299 124.476, 182.033 128.845, 179.500 129.211 C 175.630 129.770, 177.247 132.482, 181.642 132.802 C 184.177 132.987, 186.469 133.860, 187.547 135.052 C 190.689 138.524, 197.475 137.160, 196.836 133.185 C 196.639 131.958, 197.325 130.484, 198.500 129.614 C 200.454 128.167, 200.414 128.045, 196.750 124.275 C 194.688 122.152, 193 119.951, 193 119.382 C 193 117.686, 188.519 114.001, 186.436 113.984 C 185.371 113.975, 182.977 112.625, 181.114 110.984 C 178.077 108.307, 177.041 108, 171.039 108 C 165.339 108, 164.027 108.342, 162.174 110.314 C 159.252 113.425, 159.426 114.736, 163.197 118.028 C 166.015 120.488, 166.229 121.019, 165.002 122.498 C 163.716 124.047, 163.547 124.008, 162.802 121.994 C 162.358 120.793, 161.096 119.576, 159.997 119.289 C 158.899 119.002, 158 118.214, 158 117.538 C 158 116.863, 157.068 115.467, 155.930 114.436 L 153.860 112.563 157.180 109.817 L 160.500 107.070 152.584 107.130 C 142.763 107.204, 140.437 108.707, 144.103 112.610 C 145.491 114.087, 147.183 114.924, 148.228 114.651 C 149.435 114.335, 150 114.756, 150 115.971 C 150 116.952, 150.670 118.311, 151.489 118.991 C 153.395 120.573, 152.394 122.260, 150 121.500 C 148.993 121.180, 147.879 121.387, 147.525 121.959 C 146.689 123.312, 138.711 123.311, 137.358 121.958 C 136.634 121.234, 135.934 121.375, 135.070 122.415 C 133.781 123.968, 128.476 123.627, 126.550 121.868 C 125.704 121.095, 134.852 120.371, 137.500 121.001 C 140.135 121.628, 141.302 121.379, 142.199 120 C 142.915 118.899, 142.286 117.108, 139.837 113.272 C 136.423 107.924, 134.713 106.915, 133.300 109.415 C 132.680 110.511, 131.487 110.644, 128.009 110.005 C 125.538 109.551, 123.176 109.391, 122.759 109.649 C 122.341 109.907, 122 109.526, 122 108.802 C 122 107.549, 115.673 105, 112.563 105 C 111.755 105, 110.345 106.578, 109.430 108.507 M 111 107.800 C 111 108.790, 110.499 110.101, 109.887 110.713 C 109.275 111.325, 109.077 112.315, 109.446 112.913 C 110.439 114.519, 113.562 114.233, 115.086 112.396 C 115.819 111.514, 117.561 110.318, 118.959 109.738 C 121.278 108.777, 121.325 108.647, 119.500 108.246 C 118.400 108.004, 117.073 107.400, 116.550 106.903 C 114.808 105.247, 111 105.863, 111 107.800 M 492 108 C 492 108.550, 492.675 109, 493.500 109 C 494.325 109, 495 108.550, 495 108 C 495 107.450, 494.325 107, 493.500 107 C 492.675 107, 492 107.450, 492 108 M 144.674 109.406 C 144.175 110.707, 146.795 114, 148.329 114 C 148.698 114, 149 112.650, 149 111 C 149 108.723, 148.544 108, 147.107 108 C 146.066 108, 144.971 108.633, 144.674 109.406 M 152 109.917 C 152 110.971, 151.438 112.034, 150.750 112.280 C 150.063 112.525, 149.744 112.994, 150.042 113.321 C 150.339 113.649, 152.139 112.586, 154.042 110.961 L 157.500 108.005 154.750 108.002 C 152.706 108.001, 152 108.492, 152 109.917 M 134.390 110.750 C 133.718 113.177, 132.945 113.527, 131.450 112.082 C 130.928 111.577, 128.746 111.020, 126.601 110.844 C 120.892 110.376, 119.581 112.909, 123.445 116.943 C 126.213 119.831, 126.663 119.951, 134.167 119.792 C 142.165 119.621, 143.141 119.192, 140.500 117 C 139.675 116.315, 138.990 115.248, 138.978 114.628 C 138.966 114.007, 138.068 112.375, 136.984 111 L 135.013 108.500 134.390 110.750 M 162.655 110.829 C 161.745 111.835, 161 113.115, 161 113.674 C 161 117.290, 170.773 119.420, 173.993 116.506 C 175.597 115.055, 176.100 115.266, 180.481 119.232 L 185.229 123.531 183.115 127.296 C 180.600 131.772, 180.548 132.111, 182.485 131.367 C 183.302 131.054, 185.278 131.897, 186.875 133.242 C 189.012 135.040, 190.602 135.565, 192.890 135.229 C 196.475 134.703, 196.855 133.084, 194 130.500 C 192.104 128.784, 191.262 126, 192.640 126 C 192.992 126, 193.827 126.748, 194.495 127.662 C 195.259 128.707, 196.365 129.074, 197.471 128.650 C 198.995 128.065, 198.671 127.338, 195.060 123.237 C 188.081 115.310, 187.722 115, 185.512 115 C 184.336 115, 182.081 113.650, 180.500 112 C 177.870 109.255, 177.060 109, 170.968 109 C 165.788 109, 163.943 109.406, 162.655 110.829 M 399.036 112.456 C 397.614 114.170, 398.464 116, 400.681 116 C 401.958 116, 402.016 115.725, 401 114.500 C 399.710 112.946, 400.193 112.632, 403.359 112.966 C 404.469 113.084, 404.949 112.727, 404.550 112.081 C 403.594 110.534, 400.455 110.747, 399.036 112.456 M 546.667 113.667 C 545.505 114.828, 545.940 115.751, 547.889 116.261 C 550.262 116.881, 552.480 115.586, 551.569 114.112 C 550.815 112.891, 547.723 112.611, 546.667 113.667 M 358.543 119.931 C 357.860 121.036, 359.437 122.230, 360.361 121.306 C 361.311 120.355, 361.134 119, 360.059 119 C 359.541 119, 358.859 119.419, 358.543 119.931 M 254.761 127.786 C 253.968 128.743, 254.423 129.832, 256.535 132.036 C 258.096 133.666, 259.823 135, 260.371 135 C 262.018 135, 270 130.883, 270 130.033 C 270 127.207, 256.847 125.268, 254.761 127.786 M 347.045 127.446 C 346.153 128.520, 345.207 128.649, 343.357 127.946 C 339.552 126.499, 338.803 126.763, 340.057 129.107 C 340.831 130.552, 341.509 130.891, 342.214 130.186 C 342.781 129.619, 343.780 129.362, 344.435 129.613 C 345.090 129.865, 346.455 129.155, 347.468 128.035 C 348.481 126.916, 349.070 126, 348.777 126 C 348.485 126, 347.705 126.651, 347.045 127.446 M 193 128.378 C 193 128.585, 193.787 129.373, 194.750 130.128 C 196.336 131.371, 196.371 131.336, 195.128 129.750 C 193.821 128.084, 193 127.555, 193 128.378 M 256.167 129.593 C 256.784 132.729, 259.556 133.575, 263.957 131.971 C 269.929 129.793, 269.335 128.540, 262.167 128.200 C 256.662 127.939, 255.878 128.122, 256.167 129.593 M 319.990 131.526 C 319.462 132.915, 318.236 134.344, 317.265 134.703 C 314.505 135.721, 313.960 137.290, 315.531 139.688 C 316.447 141.086, 316.609 142.123, 315.974 142.516 C 315.422 142.858, 314.322 144.687, 313.530 146.582 C 311.639 151.109, 309.253 151.987, 306.992 148.990 L 305.240 146.667 304.556 148.825 C 303.467 152.254, 304.630 152.894, 311.180 152.472 C 317.739 152.050, 318.588 151.629, 319.191 148.500 C 319.409 147.370, 320.307 146.558, 321.256 146.633 C 322.402 146.725, 322.866 146.093, 322.718 144.646 C 322.543 142.945, 323.195 142.399, 326 141.894 L 329.500 141.263 325.950 141.132 C 323.998 141.059, 321.860 140.460, 321.200 139.800 C 319.382 137.982, 319.761 134.526, 322 132.500 C 324.386 130.341, 324.568 129, 322.475 129 C 321.637 129, 320.518 130.137, 319.990 131.526 M 166 132.154 C 166 133.899, 166.248 134.039, 167.500 133 C 168.325 132.315, 169 131.633, 169 131.485 C 169 131.336, 168.325 130.955, 167.500 130.638 C 166.461 130.240, 166 130.706, 166 132.154 M 281 146.228 C 281 147.545, 281.900 149.589, 283 150.770 C 285.433 153.381, 285.508 154.781, 283.345 157.171 C 281.767 158.915, 281.883 159, 285.845 159 C 288.130 159, 290 158.645, 290 158.211 C 290 156.593, 283.275 144.592, 282.159 144.220 C 281.495 143.998, 281 144.857, 281 146.228 M 301.651 148.468 C 301.341 149.275, 301.467 150.170, 301.930 150.457 C 302.393 150.743, 303.007 150.083, 303.293 148.989 C 303.891 146.703, 302.498 146.261, 301.651 148.468 M 275.046 152.445 C 274.386 153.240, 273.994 154.927, 274.173 156.195 C 274.415 157.900, 275.151 158.500, 277 158.500 C 279.167 158.500, 279.541 158.001, 279.810 154.750 C 280.071 151.600, 279.811 151, 278.183 151 C 277.117 151, 275.705 151.650, 275.046 152.445 M 275.667 152.667 C 275.300 153.033, 275 154.383, 275 155.667 C 275 157.333, 275.571 158, 277 158 C 278.556 158, 279 157.333, 279 155 C 279 152.179, 277.326 151.007, 275.667 152.667 M 494.115 161.750 C 494.229 167.439, 494.239 167.457, 495.057 163.500 C 496.193 158.012, 496.177 156, 495 156 C 494.436 156, 494.050 158.507, 494.115 161.750 M 205.732 163 C 204.087 164.921, 204.115 165, 206.451 165 C 207.788 165, 209.148 165.430, 209.473 165.956 C 209.798 166.482, 210.764 166.644, 211.620 166.316 C 212.906 165.822, 212.735 165.309, 210.632 163.359 C 207.566 160.517, 207.841 160.537, 205.732 163 M 332.174 169.314 C 330.881 170.691, 330 172.920, 330 174.814 C 330 177.657, 330.310 178, 332.878 178 C 334.460 178, 336.301 177.342, 336.969 176.537 C 338.033 175.256, 338.478 175.267, 340.551 176.625 C 342.941 178.191, 348.385 177.805, 349.507 175.989 C 349.798 175.518, 348.391 173.534, 346.381 171.581 C 343.659 168.938, 342.149 168.175, 340.472 168.596 C 339.232 168.908, 337.918 168.676, 337.550 168.081 C 336.488 166.363, 334.523 166.814, 332.174 169.314 M 332.655 169.829 C 331.745 170.835, 331 172.860, 331 174.329 C 331 176.475, 331.468 177, 333.378 177 C 334.685 177, 336.331 176.306, 337.035 175.458 C 337.923 174.388, 338.634 174.234, 339.358 174.958 C 340.588 176.188, 348 176.374, 348 175.174 C 348 173.083, 343.003 169.766, 340.557 170.234 C 339.088 170.515, 337.536 170.145, 336.884 169.360 C 335.389 167.559, 334.633 167.643, 332.655 169.829 M 358.491 170.010 C 357.008 171.648, 356.882 172.433, 357.806 174.260 C 358.429 175.492, 359.065 178.075, 359.219 180 C 359.472 183.148, 359.826 183.531, 362.750 183.813 C 365.976 184.124, 366 184.094, 366 179.686 C 366 176.849, 365.426 174.769, 364.412 173.927 C 362.988 172.745, 363.051 172.525, 365.026 171.795 C 366.843 171.123, 367.012 170.719, 365.992 169.490 C 364.249 167.390, 360.636 167.640, 358.491 170.010 M 308 170.411 C 308 171.991, 313.534 177, 315.280 177 C 315.899 177, 314.648 175.200, 312.500 173 C 308.118 168.513, 308 168.445, 308 170.411 M 359.571 170.571 C 357.759 172.384, 357.579 173.622, 359 174.500 C 359.550 174.840, 360 176.891, 360 179.059 C 360 182.596, 360.256 183, 362.500 183 C 364.673 183, 365 182.559, 365 179.622 C 365 177.765, 364.325 175.685, 363.500 175 C 361.344 173.211, 361.653 171, 364.059 171 C 365.191 171, 365.840 170.550, 365.500 170 C 364.567 168.490, 361.342 168.800, 359.571 170.571 M 301 177.500 C 301 179.425, 301.450 181, 302 181 C 302.550 181, 303 179.425, 303 177.500 C 303 175.575, 302.550 174, 302 174 C 301.450 174, 301 175.575, 301 177.500 M 491 179.195 C 491 181.748, 485.669 186, 482.468 186 C 478.875 186, 476 188.591, 476 191.829 C 476 194.332, 476.703 194.536, 478.921 192.678 C 479.790 191.950, 482.441 190.744, 484.813 189.997 C 487.186 189.249, 490.223 187.335, 491.563 185.742 C 494.304 182.485, 494.847 178, 492.500 178 C 491.675 178, 491 178.538, 491 179.195 M 492 179.643 C 492 181.828, 485.698 187, 483.036 187 C 481.537 187, 479.565 187.823, 478.655 188.829 C 476.680 191.011, 476.440 192.709, 478.328 191.142 C 479.059 190.536, 480.522 189.895, 481.578 189.719 C 485.870 189.002, 490.862 185.747, 492.042 182.898 C 492.717 181.269, 492.984 179.650, 492.635 179.301 C 492.286 178.952, 492 179.106, 492 179.643 M 462.345 204.543 C 462.019 205.392, 462.004 206.337, 462.310 206.643 C 463.186 207.519, 465 206.034, 465 204.441 C 465 202.522, 463.092 202.596, 462.345 204.543 M 170.174 205.959 C 166.756 206.766, 167.054 208.457, 170.676 208.808 C 172.422 208.977, 174.390 209.765, 175.048 210.558 C 176.580 212.404, 182 212.479, 182 210.655 C 182 207.110, 175.773 204.637, 170.174 205.959 M 171.177 207.709 C 172.649 207.934, 174.392 208.767, 175.049 209.559 C 176.304 211.072, 181 211.577, 181 210.200 C 181 208.166, 178.182 207.012, 173.550 207.150 C 170.773 207.232, 169.705 207.484, 171.177 207.709 M 183.379 211.454 C 182.416 213.964, 184.379 215.295, 187.901 214.522 C 190.863 213.871, 192.357 211.015, 189.750 210.986 C 189.063 210.979, 187.493 210.703, 186.262 210.373 C 184.704 209.955, 183.828 210.284, 183.379 211.454 M 184 211.834 C 184 213.565, 185.674 214.061, 188.158 213.065 C 189.754 212.426, 189.969 212.107, 188.832 212.063 C 187.914 212.029, 186.452 211.727, 185.582 211.393 C 184.712 211.059, 184 211.258, 184 211.834 M 462 216.393 C 462 218.487, 462.574 220.006, 463.500 220.362 C 465.181 221.007, 465.619 218.500, 464 217.500 C 463.450 217.160, 463.032 216.121, 463.070 215.191 C 463.128 213.797, 463.274 213.842, 463.902 215.446 C 464.629 217.304, 464.690 217.293, 465.238 215.196 C 465.682 213.502, 465.377 213, 463.906 213 C 462.406 213, 462 213.722, 462 216.393 M 467.236 227.036 C 465.066 227.908, 465.044 228.029, 466.709 229.973 C 469.627 233.381, 472.792 232.071, 471.497 227.991 C 470.798 225.788, 470.506 225.723, 467.236 227.036 M 468.512 227.980 C 468.106 228.637, 468.224 229.624, 468.774 230.174 C 470.077 231.477, 471.113 229.801, 470.059 228.095 C 469.444 227.101, 469.073 227.073, 468.512 227.980 M 405 229.559 C 405 230.416, 405.457 230.835, 406.016 230.490 C 406.575 230.144, 406.774 229.443, 406.457 228.931 C 405.600 227.544, 405 227.802, 405 229.559 M 433.993 231.750 C 436.274 236.470, 438 237.976, 438 235.246 C 438 234.217, 436.650 232.081, 435.001 230.501 L 432.001 227.627 433.993 231.750 M 454 232.076 C 452.075 233.766, 449.488 235.842, 448.250 236.689 C 445.372 238.660, 445.359 242.437, 448.223 244.443 C 451.348 246.632, 453.382 246.391, 456.923 243.411 L 460 240.822 460.015 243.661 C 460.034 247.134, 461.439 249.716, 462.434 248.107 C 462.810 247.498, 463.991 247, 465.059 247 C 466.533 247, 467 246.304, 467 244.107 C 467 242.458, 467.645 240.966, 468.500 240.638 C 469.325 240.322, 470 239.452, 470 238.705 C 470 236.959, 464.181 237.648, 461.870 239.668 C 460.412 240.942, 460.188 240.746, 459.737 237.796 C 459.461 235.983, 459.687 233.938, 460.240 233.250 C 460.926 232.396, 460.850 231.524, 460 230.500 C 458.316 228.471, 458.020 228.548, 454 232.076 M 452.069 235.198 C 447.664 239.259, 446.834 240.515, 447.670 241.852 C 449.287 244.435, 453.852 244.487, 456.550 241.953 C 458.417 240.199, 458.840 238.871, 458.639 235.403 C 458.500 233.010, 458.187 230.859, 457.943 230.623 C 457.699 230.386, 455.056 232.445, 452.069 235.198 M 427 233.365 C 427 234.116, 427.900 235.874, 429 237.273 C 430.100 238.671, 431 240.255, 431 240.791 C 431 242.091, 438.695 249, 440.143 249 C 440.768 249, 441.779 249.683, 442.390 250.518 C 443.006 251.360, 445.837 252.312, 448.750 252.657 C 453.179 253.181, 454 253.025, 454 251.658 C 454 250.143, 451.857 249.245, 447.750 249.040 C 442.651 248.785, 442 248.496, 442 246.486 C 442 245.229, 439.439 241.938, 435.552 238.200 C 429.096 231.994, 427 230.808, 427 233.365 M 429.135 234.872 C 429.886 236.176, 431.010 238.126, 431.633 239.203 C 433.128 241.789, 439.174 248, 440.196 248 C 442.408 248, 440.358 244.814, 434.385 238.971 C 430.747 235.412, 428.385 233.567, 429.135 234.872 M 472.380 237.452 C 472.074 238.251, 472.114 239.376, 472.470 239.952 C 473.635 241.837, 475 241.053, 475 238.500 C 475 235.789, 473.282 235.102, 472.380 237.452 M 479.229 240.839 C 477.509 241.929, 480.371 245.158, 484.750 247.070 C 486.538 247.850, 488 249.223, 488 250.122 C 488 253.043, 490.655 254.279, 495.402 253.567 C 498.121 253.159, 500.072 253.307, 500.470 253.952 C 500.827 254.528, 502.216 255, 503.559 255 C 506.721 255, 506.767 252.409, 503.619 251.619 C 502.310 251.291, 501.005 250.128, 500.719 249.035 C 500.434 247.942, 498.917 246.531, 497.350 245.900 C 488.252 242.233, 487.160 241.932, 486.548 242.923 C 486.264 243.383, 485.208 243.974, 484.201 244.237 C 482.865 244.586, 482.389 244.174, 482.436 242.709 C 482.508 240.445, 481.123 239.637, 479.229 240.839 M 461.362 242.500 C 461.045 243.325, 461.129 244.787, 461.548 245.750 C 462.266 247.400, 462.334 247.397, 462.738 245.697 C 463.079 244.265, 463.459 244.136, 464.584 245.069 C 466.562 246.711, 466.429 244.572, 464.429 242.571 C 462.480 240.623, 462.085 240.614, 461.362 242.500 M 480 241.882 C 480 242.432, 480.450 243.160, 481 243.500 C 481.550 243.840, 482 243.668, 482 243.118 C 482 242.568, 481.550 241.840, 481 241.500 C 480.450 241.160, 480 241.332, 480 241.882 M 485.942 244.570 C 485.143 245.533, 485.395 246.141, 486.935 246.965 C 488.071 247.573, 489 248.674, 489 249.413 C 489 252.169, 491.923 253.468, 495.276 252.202 C 497.832 251.237, 498.816 251.304, 500.756 252.576 C 502.057 253.429, 503.657 253.908, 504.311 253.642 C 504.975 253.372, 504.757 253.123, 503.818 253.079 C 502.893 253.036, 501.175 251.650, 500 250 C 498.825 248.350, 497.050 247, 496.054 247 C 495.059 247, 493.726 246.375, 493.092 245.611 C 491.467 243.653, 487.216 243.034, 485.942 244.570 M 470.192 245.075 C 470.389 245.666, 470.978 246.150, 471.500 246.150 C 472.022 246.150, 472.611 245.666, 472.808 245.075 C 473.005 244.484, 472.417 244, 471.500 244 C 470.583 244, 469.995 244.484, 470.192 245.075 M 474 245 C 474 245.550, 474.927 246, 476.059 246 C 477.191 246, 477.840 245.550, 477.500 245 C 477.160 244.450, 476.234 244, 475.441 244 C 474.648 244, 474 244.450, 474 245 M 505.149 247.063 C 503.084 248.750, 503.002 249.064, 504.476 249.629 C 506.537 250.420, 509.863 247.453, 508.457 246.078 C 507.859 245.493, 506.618 245.863, 505.149 247.063 M 443 249.393 C 443 249.609, 443.698 250.054, 444.552 250.382 C 445.442 250.723, 445.843 250.555, 445.493 249.989 C 444.906 249.038, 443 248.583, 443 249.393 M 448 251 C 446.875 251.727, 447.375 251.969, 450 251.969 C 452.625 251.969, 453.125 251.727, 452 251 C 451.175 250.467, 450.275 250.031, 450 250.031 C 449.725 250.031, 448.825 250.467, 448 251 M 457.218 252.154 C 457.737 253.712, 459.974 253.984, 460.053 252.500 C 460.082 251.950, 459.355 251.345, 458.438 251.154 C 457.395 250.939, 456.938 251.313, 457.218 252.154 M 468.015 252.954 C 466.648 254.004, 465.879 255.212, 466.305 255.639 C 467.181 256.514, 472.255 253.736, 472.807 252.079 C 473.374 250.379, 470.741 250.859, 468.015 252.954 M 477.192 258.483 C 475.627 260.472, 474.581 260.933, 472.698 260.460 C 470.646 259.945, 469.531 260.674, 465.872 264.922 C 462.286 269.086, 460.916 269.999, 458.250 270 C 452.861 270, 449.206 275.063, 452.334 278.192 C 453.068 278.926, 453.980 282.169, 454.359 285.398 C 454.739 288.628, 455.290 291.660, 455.584 292.135 C 456.411 293.475, 460.287 293.098, 462.441 291.468 C 463.509 290.661, 465.678 290, 467.263 290 C 468.847 290, 470.818 289.325, 471.643 288.500 C 473.869 286.274, 477.889 286.678, 481.589 289.500 C 483.392 290.875, 485.258 292, 485.737 292 C 486.216 292, 488.134 293.575, 490 295.500 C 492.726 298.313, 494.152 299, 497.262 299 C 501.993 299, 505 297.515, 505 295.177 C 505 294.213, 506.332 291.866, 507.959 289.962 C 510.367 287.145, 510.926 285.563, 510.959 281.471 C 510.999 276.590, 510.809 276.252, 504.500 270 C 500.925 266.457, 498 262.757, 498 261.779 C 498 260.800, 497.580 260, 497.067 260 C 496.554 260, 495.849 259.100, 495.500 258 C 494.452 254.698, 493.268 255.713, 492 261 C 491.340 263.750, 490.474 266, 490.075 266 C 488.593 266, 485.164 261.417, 484.838 259 C 484.343 255.335, 479.904 255.035, 477.192 258.483 M 356.250 260.491 C 354.462 262.391, 353 264.993, 353 266.273 C 353 267.553, 352.494 269.106, 351.875 269.725 C 350.331 271.269, 351.636 277.647, 353.654 278.421 C 355.512 279.134, 358 277.383, 358 275.364 C 358 274.599, 358.417 273.191, 358.926 272.236 C 361.190 267.989, 362.832 260.555, 361.893 258.801 C 360.576 256.339, 359.993 256.513, 356.250 260.491 M 477.541 259.957 C 475.157 262.446, 474.384 262.741, 472.666 261.821 C 470.879 260.865, 470.053 261.373, 466.062 265.884 C 462.431 269.988, 460.878 271.036, 458.450 271.020 C 456.773 271.009, 454.860 271.540, 454.200 272.200 C 452.744 273.656, 452.618 277.646, 454 278.500 C 454.550 278.840, 455 280.591, 455 282.392 C 455 284.193, 455.337 286.007, 455.750 286.424 C 456.163 286.840, 456.500 288.153, 456.500 289.340 C 456.500 292.001, 460.094 292.796, 461.960 290.548 C 462.667 289.697, 464.710 289, 466.500 289 C 468.290 289, 470.315 288.325, 471 287.500 C 473.046 285.035, 479.277 285.602, 482 288.500 C 483.292 289.875, 484.857 291, 485.478 291 C 486.099 291, 488.134 292.575, 490 294.500 C 492.555 297.136, 494.224 298, 496.762 298 C 500.411 298, 504 296.502, 504 294.980 C 504 294.457, 505.350 291.836, 507 289.154 C 511.698 281.520, 511.181 278.815, 503.468 270.670 C 499.911 266.913, 497 263.255, 497 262.542 C 497 261.829, 496.344 260.700, 495.541 260.034 C 494.048 258.795, 493.678 259.520, 492.789 265.417 C 492.348 268.340, 490.571 268.351, 487.126 265.452 C 484.943 263.616, 484 261.944, 484 259.911 C 484 256.026, 481.289 256.045, 477.541 259.957 M 356.687 261.805 C 355.209 263.347, 354 265.351, 354 266.258 C 354 267.164, 353.523 268.952, 352.940 270.231 C 352.205 271.845, 352.197 273.389, 352.916 275.278 C 354.095 278.381, 355.798 278.827, 356.622 276.250 C 356.930 275.288, 357.541 273.600, 357.981 272.500 C 359.239 269.351, 361 262.430, 361 260.634 C 361 258.273, 359.744 258.614, 356.687 261.805 M 544.500 265 C 544.101 265.646, 544.224 266.624, 544.774 267.174 C 545.441 267.841, 546.016 267.783, 546.500 267 C 546.899 266.354, 546.776 265.376, 546.226 264.826 C 545.559 264.159, 544.984 264.217, 544.500 265 M 538 293.878 C 538 294.360, 538.681 295.320, 539.512 296.010 C 540.607 296.919, 540.732 297.618, 539.964 298.544 C 539.216 299.445, 539.217 300.016, 539.968 300.480 C 540.553 300.842, 540.793 301.526, 540.500 302 C 539.123 304.229, 542.272 303.810, 544.434 301.477 C 546.874 298.844, 546.916 296, 544.515 296 C 543.817 296, 542.685 295.325, 542 294.500 C 540.649 292.872, 538 292.459, 538 293.878 M 541.556 297.910 C 541.247 298.410, 541.292 299.598, 541.658 300.550 C 542.279 302.170, 542.407 302.164, 543.661 300.449 C 544.397 299.442, 545 298.254, 545 297.809 C 545 296.703, 542.252 296.783, 541.556 297.910 M 497.190 303.750 C 497.403 304.854, 498.440 305.500, 500 305.500 C 501.560 305.500, 502.597 304.854, 502.810 303.750 C 503.073 302.383, 502.459 302, 500 302 C 497.541 302, 496.927 302.383, 497.190 303.750 M 532.740 306.464 C 529.489 310.161, 529.183 310.907, 530.478 311.982 C 532.439 313.609, 534.811 312.628, 535.911 309.735 C 536.395 308.460, 537.519 306.814, 538.408 306.076 C 539.642 305.052, 539.756 304.411, 538.890 303.367 C 537.314 301.469, 536.988 301.633, 532.740 306.464 M 498.800 304.200 C 499.733 305.133, 500.267 305.133, 501.200 304.200 C 502.133 303.267, 501.867 303, 500 303 C 498.133 303, 497.867 303.267, 498.800 304.200 M 534.210 306.414 C 531.014 310.053, 530.203 312, 531.881 312 C 533.207 312, 538.201 305.103, 537.783 303.850 C 537.583 303.249, 535.975 304.403, 534.210 306.414 " stroke="none" fill="black" fill-rule="evenodd"/>
</svg>